<svg width="194" height="64" viewBox="0 0 194 64" fill="none" xmlns="http://www.w3.org/2000/svg">
<path fill-rule="evenodd" clip-rule="evenodd" d="M188.541 11.0989L191.842 2.73646C192.436 1.22935 191.086 -0.322546 189.511 0.0582286L174.338 3.72688C173.57 3.64573 172.79 3.60412 172 3.60412H22C9.84973 3.60412 0 13.4539 0 25.6041V41.6041C0 53.7544 9.84973 63.6041 22 63.6041H172C184.15 63.6041 194 53.7544 194 41.6041V25.6041C194 20.0471 191.94 14.9713 188.541 11.0989Z" fill="#FEF9CF"/>
<path d="M26.3008 28.9517C27.0007 28.9517 27.6354 28.7808 28.2051 28.439C28.7829 28.089 29.2467 27.6292 29.5967 27.0596C29.9466 26.4818 30.1216 25.847 30.1216 25.1553C30.1216 24.4554 29.9466 23.8206 29.5967 23.251C29.2467 22.6732 28.7829 22.2093 28.2051 21.8594C27.6354 21.5094 27.0007 21.3345 26.3008 21.3345C25.609 21.3345 24.9743 21.5094 24.3965 21.8594C23.8187 22.2093 23.3548 22.6732 23.0049 23.251C22.6631 23.8206 22.4922 24.4554 22.4922 25.1553C22.4922 25.847 22.6631 26.4818 23.0049 27.0596C23.3548 27.6292 23.8187 28.089 24.3965 28.439C24.9743 28.7808 25.609 28.9517 26.3008 28.9517ZM26.3008 27.2671C25.9183 27.2671 25.5643 27.1735 25.2388 26.9863C24.9214 26.791 24.665 26.5347 24.4697 26.2173C24.2744 25.8918 24.1768 25.5378 24.1768 25.1553C24.1768 24.7646 24.2744 24.4106 24.4697 24.0933C24.665 23.7677 24.9214 23.5073 25.2388 23.312C25.5643 23.1167 25.9183 23.019 26.3008 23.019C26.6914 23.019 27.0454 23.1167 27.3628 23.312C27.6883 23.5073 27.9447 23.7677 28.1318 24.0933C28.3271 24.4106 28.4248 24.7646 28.4248 25.1553C28.4248 25.5378 28.3271 25.8918 28.1318 26.2173C27.9447 26.5347 27.6883 26.791 27.3628 26.9863C27.0454 27.1735 26.6914 27.2671 26.3008 27.2671ZM34.6992 28.9517C35.391 28.9517 36.0257 28.7808 36.6035 28.439C37.1813 28.089 37.6411 27.6292 37.9829 27.0596C38.3328 26.4818 38.5078 25.847 38.5078 25.1553C38.5078 24.4554 38.3328 23.8206 37.9829 23.251C37.6411 22.6732 37.1813 22.2093 36.6035 21.8594C36.0257 21.5094 35.391 21.3345 34.6992 21.3345C34.0075 21.3345 33.3727 21.5094 32.7949 21.8594C32.2171 22.2093 31.7533 22.6732 31.4033 23.251C31.0615 23.8206 30.8906 24.4554 30.8906 25.1553C30.8906 25.847 31.0615 26.4818 31.4033 27.0596C31.7533 27.6292 32.2171 28.089 32.7949 28.439C33.3727 28.7808 34.0075 28.9517 34.6992 28.9517ZM34.6992 27.2671C34.3086 27.2671 33.9505 27.1735 33.625 26.9863C33.3076 26.791 33.0513 26.5347 32.856 26.2173C32.6688 25.8918 32.5752 25.5378 32.5752 25.1553C32.5752 24.7646 32.6688 24.4106 32.856 24.0933C33.0513 23.7677 33.3076 23.5073 33.625 23.312C33.9505 23.1167 34.3086 23.019 34.6992 23.019C35.0817 23.019 35.4357 23.1167 35.7612 23.312C36.0868 23.5073 36.3431 23.7677 36.5303 24.0933C36.7256 24.4106 36.8232 24.7646 36.8232 25.1553C36.8232 25.5378 36.7256 25.8918 36.5303 26.2173C36.3431 26.5347 36.0868 26.791 35.7612 26.9863C35.4357 27.1735 35.0817 27.2671 34.6992 27.2671ZM22.1138 36.4834C22.8055 36.4834 23.4403 36.3125 24.0181 35.9707C24.5959 35.6208 25.0557 35.1569 25.3975 34.5791C25.7474 33.9932 25.9224 33.3543 25.9224 32.6626C25.9224 31.9709 25.7474 31.3361 25.3975 30.7583C25.0557 30.1805 24.5959 29.7207 24.0181 29.3789C23.4403 29.029 22.8055 28.854 22.1138 28.854C21.4139 28.854 20.7751 29.029 20.1973 29.3789C19.6276 29.7207 19.1678 30.1805 18.8179 30.7583C18.4679 31.3361 18.293 31.9709 18.293 32.6626C18.293 33.3543 18.4679 33.9932 18.8179 34.5791C19.1678 35.1569 19.6276 35.6208 20.1973 35.9707C20.7751 36.3125 21.4139 36.4834 22.1138 36.4834ZM22.1138 34.7988C21.7231 34.7988 21.3651 34.7012 21.0396 34.5059C20.7222 34.3105 20.4658 34.0501 20.2705 33.7246C20.0833 33.3991 19.9897 33.0451 19.9897 32.6626C19.9897 32.2801 20.0833 31.9302 20.2705 31.6128C20.4658 31.2873 20.7222 31.0269 21.0396 30.8315C21.3651 30.6362 21.7231 30.5386 22.1138 30.5386C22.4963 30.5386 22.8503 30.6362 23.1758 30.8315C23.5013 31.0269 23.7576 31.2873 23.9448 31.6128C24.1401 31.9302 24.2378 32.2801 24.2378 32.6626C24.2378 33.0451 24.1401 33.3991 23.9448 33.7246C23.7576 34.0501 23.5013 34.3105 23.1758 34.5059C22.8503 34.7012 22.4963 34.7988 22.1138 34.7988ZM30.5 36.4834C31.1917 36.4834 31.8265 36.3125 32.4043 35.9707C32.9821 35.6208 33.4419 35.1569 33.7837 34.5791C34.1336 33.9932 34.3086 33.3543 34.3086 32.6626C34.3086 31.9709 34.1336 31.3361 33.7837 30.7583C33.4419 30.1805 32.9821 29.7207 32.4043 29.3789C31.8265 29.029 31.1917 28.854 30.5 28.854C29.8083 28.854 29.1735 29.029 28.5957 29.3789C28.0179 29.7207 27.554 30.1805 27.2041 30.7583C26.8623 31.3361 26.6914 31.9709 26.6914 32.6626C26.6914 33.3543 26.8623 33.9932 27.2041 34.5791C27.554 35.1569 28.0179 35.6208 28.5957 35.9707C29.1735 36.3125 29.8083 36.4834 30.5 36.4834ZM30.5 34.7988C30.1175 34.7988 29.7635 34.7012 29.438 34.5059C29.1206 34.3105 28.8643 34.0501 28.6689 33.7246C28.4736 33.3991 28.376 33.0451 28.376 32.6626C28.376 32.2801 28.4736 31.9302 28.6689 31.6128C28.8643 31.2873 29.1206 31.0269 29.438 30.8315C29.7635 30.6362 30.1175 30.5386 30.5 30.5386C30.8906 30.5386 31.2446 30.6362 31.562 30.8315C31.8875 31.0269 32.1439 31.2873 32.3311 31.6128C32.5264 31.9302 32.624 32.2801 32.624 32.6626C32.624 33.0451 32.5264 33.3991 32.3311 33.7246C32.1439 34.0501 31.8875 34.3105 31.562 34.5059C31.2446 34.7012 30.8906 34.7988 30.5 34.7988ZM38.8984 36.4834C39.5902 36.4834 40.2249 36.3125 40.8027 35.9707C41.3805 35.6208 41.8403 35.1569 42.1821 34.5791C42.5321 33.9932 42.707 33.3543 42.707 32.6626C42.707 31.9709 42.5321 31.3361 42.1821 30.7583C41.8403 30.1805 41.3805 29.7207 40.8027 29.3789C40.2249 29.029 39.5902 28.854 38.8984 28.854C38.2067 28.854 37.5719 29.029 36.9941 29.3789C36.4163 29.7207 35.9525 30.1805 35.6025 30.7583C35.2607 31.3361 35.0898 31.9709 35.0898 32.6626C35.0898 33.3543 35.2607 33.9932 35.6025 34.5791C35.9525 35.1569 36.4163 35.6208 36.9941 35.9707C37.5719 36.3125 38.2067 36.4834 38.8984 36.4834ZM38.8984 34.7988C38.5078 34.7988 38.1497 34.7012 37.8242 34.5059C37.5068 34.3105 37.2505 34.0501 37.0552 33.7246C36.868 33.3991 36.7744 33.0451 36.7744 32.6626C36.7744 32.2801 36.868 31.9302 37.0552 31.6128C37.2505 31.2873 37.5068 31.0269 37.8242 30.8315C38.1497 30.6362 38.5078 30.5386 38.8984 30.5386C39.2809 30.5386 39.6349 30.6362 39.9604 30.8315C40.286 31.0269 40.5423 31.2873 40.7295 31.6128C40.9248 31.9302 41.0225 32.2801 41.0225 32.6626C41.0225 33.0451 40.9248 33.3991 40.7295 33.7246C40.5423 34.0501 40.286 34.3105 39.9604 34.5059C39.6349 34.7012 39.2809 34.7988 38.8984 34.7988ZM26.3008 43.9907C27.0007 43.9907 27.6354 43.8158 28.2051 43.4658C28.7829 43.124 29.2467 42.6642 29.5967 42.0864C29.9466 41.5086 30.1216 40.8739 30.1216 40.1821C30.1216 39.4904 29.9466 38.8597 29.5967 38.29C29.2467 37.7122 28.7829 37.2524 28.2051 36.9106C27.6354 36.5607 27.0007 36.3857 26.3008 36.3857C25.609 36.3857 24.9743 36.5607 24.3965 36.9106C23.8187 37.2524 23.3548 37.7122 23.0049 38.29C22.6631 38.8597 22.4922 39.4904 22.4922 40.1821C22.4922 40.8739 22.6631 41.5086 23.0049 42.0864C23.3548 42.6642 23.8187 43.124 24.3965 43.4658C24.9743 43.8158 25.609 43.9907 26.3008 43.9907ZM26.3008 42.3062C25.9183 42.3062 25.5643 42.2085 25.2388 42.0132C24.9214 41.826 24.665 41.5697 24.4697 41.2441C24.2744 40.9268 24.1768 40.5728 24.1768 40.1821C24.1768 39.7996 24.2744 39.4497 24.4697 39.1323C24.665 38.8068 24.9214 38.5505 25.2388 38.3633C25.5643 38.168 25.9183 38.0703 26.3008 38.0703C26.6914 38.0703 27.0454 38.168 27.3628 38.3633C27.6883 38.5505 27.9447 38.8068 28.1318 39.1323C28.3271 39.4497 28.4248 39.7996 28.4248 40.1821C28.4248 40.5728 28.3271 40.9268 28.1318 41.2441C27.9447 41.5697 27.6883 41.826 27.3628 42.0132C27.0454 42.2085 26.6914 42.3062 26.3008 42.3062ZM34.6992 43.9907C35.391 43.9907 36.0257 43.8158 36.6035 43.4658C37.1813 43.124 37.6411 42.6642 37.9829 42.0864C38.3328 41.5086 38.5078 40.8739 38.5078 40.1821C38.5078 39.4904 38.3328 38.8597 37.9829 38.29C37.6411 37.7122 37.1813 37.2524 36.6035 36.9106C36.0257 36.5607 35.391 36.3857 34.6992 36.3857C34.0075 36.3857 33.3727 36.5607 32.7949 36.9106C32.2171 37.2524 31.7533 37.7122 31.4033 38.29C31.0615 38.8597 30.8906 39.4904 30.8906 40.1821C30.8906 40.8739 31.0615 41.5086 31.4033 42.0864C31.7533 42.6642 32.2171 43.124 32.7949 43.4658C33.3727 43.8158 34.0075 43.9907 34.6992 43.9907ZM34.6992 42.3062C34.3086 42.3062 33.9505 42.2085 33.625 42.0132C33.3076 41.826 33.0513 41.5697 32.856 41.2441C32.6688 40.9268 32.5752 40.5728 32.5752 40.1821C32.5752 39.7996 32.6688 39.4497 32.856 39.1323C33.0513 38.8068 33.3076 38.5505 33.625 38.3633C33.9505 38.168 34.3086 38.0703 34.6992 38.0703C35.0817 38.0703 35.4357 38.168 35.7612 38.3633C36.0868 38.5505 36.3431 38.8068 36.5303 39.1323C36.7256 39.4497 36.8232 39.7996 36.8232 40.1821C36.8232 40.5728 36.7256 40.9268 36.5303 41.2441C36.3431 41.5697 36.0868 41.826 35.7612 42.0132C35.4357 42.2085 35.0817 42.3062 34.6992 42.3062Z" fill="#131313"/>
<path d="M52.9 41H59.25C60.15 41 60.3 41 60.55 40.975C63.7 40.725 65.4 38.4 65.4 35.95C65.4 33.625 63.525 32.05 61.075 31.8V31.775C63.375 31.4 64.65 29.55 64.65 27.925C64.65 25.225 62.975 23.45 60.125 23.175C59.9 23.15 59.75 23.15 58.275 23.15H52.9V41ZM55.275 30.9V25.15H58.95C61.025 25.15 62.275 25.925 62.275 27.925C62.275 29.925 61.025 30.9 58.95 30.9H55.275ZM55.275 39V32.9H59.65C61.625 32.9 63.025 34.05 63.025 35.95C63.025 37.875 61.625 39 59.65 39H55.275ZM67.91 23.15V41H70.16V23.15H67.91ZM79.2246 41.3C83.1496 41.3 85.6996 38.35 85.6996 34.55C85.6996 30.75 83.1496 27.775 79.2246 27.775C75.2996 27.775 72.7496 30.75 72.7496 34.55C72.7496 38.35 75.2996 41.3 79.2246 41.3ZM79.2246 39.4C76.6996 39.4 74.9996 37.2 74.9996 34.55C74.9996 31.875 76.6996 29.675 79.2246 29.675C81.7496 29.675 83.4496 31.875 83.4496 34.55C83.4496 37.2 81.7496 39.4 79.2246 39.4ZM99.8457 37.05H97.5707C96.9957 38.575 95.9207 39.425 94.0457 39.425C91.4207 39.425 89.7457 37.3 89.7457 34.55C89.7457 31.775 91.4207 29.625 94.0457 29.625C96.1457 29.625 97.0207 30.775 97.4957 31.95H99.7457C99.1957 29.6 97.4207 27.775 94.1207 27.775C90.0957 27.775 87.4957 30.65 87.4957 34.55C87.4957 38.45 90.0957 41.3 94.1207 41.3C97.2457 41.3 99.1207 39.75 99.8457 37.05ZM110.556 41H113.431L107.531 33.525L112.931 28.075H110.206L104.606 33.725V23.15H102.356V41H104.606V36.475L105.981 35.1L110.556 41ZM126.433 37.05H124.158C123.583 38.575 122.508 39.425 120.633 39.425C118.008 39.425 116.333 37.3 116.333 34.55C116.333 31.775 118.008 29.625 120.633 29.625C122.733 29.625 123.608 30.775 124.083 31.95H126.333C125.783 29.6 124.008 27.775 120.708 27.775C116.683 27.775 114.083 30.65 114.083 34.55C114.083 38.45 116.683 41.3 120.708 41.3C123.833 41.3 125.708 39.75 126.433 37.05ZM135.068 27.775C132.893 27.775 131.568 29.225 131.218 30.7H131.193V23.15H128.943V41H131.193V34.15C131.193 30.775 132.868 29.675 134.768 29.675C136.518 29.675 137.493 30.575 137.493 32.85V41H139.743V32.625C139.743 30 138.468 27.775 135.068 27.775ZM150.936 41H153.336C153.236 40.375 153.136 39.35 153.136 38.375V32.825C153.136 30.825 152.686 27.75 147.936 27.75C144.561 27.75 143.036 30.05 142.961 31.975H145.211C145.311 30.525 146.436 29.65 148.011 29.65C149.861 29.65 150.886 30.425 150.886 31.5C150.886 32.575 150.336 33.05 148.636 33.35C146.686 33.7 142.086 33.675 142.086 37.475C142.086 39.325 143.511 41.3 146.611 41.3C149.486 41.3 150.561 39.625 150.861 38.625H150.886V39.125C150.886 39.85 150.886 40.375 150.936 41ZM147.011 39.475C145.436 39.475 144.311 38.7 144.311 37.475C144.311 36.025 145.436 35.625 147.311 35.3C150.036 34.825 150.636 34.1 150.886 33.275H150.936V35C150.936 38.2 148.986 39.475 147.011 39.475ZM158.637 25.75V23.25H156.237V25.75H158.637ZM156.312 41H158.562V28.075H156.312V41ZM167.905 27.775C165.73 27.775 164.405 29.225 164.055 30.7H164.03V28.075H161.78V41H164.03V34.15C164.03 30.775 165.705 29.675 167.605 29.675C169.355 29.675 170.33 30.575 170.33 32.85V41H172.58V32.625C172.58 30 171.305 27.775 167.905 27.775Z" fill="#131313"/>
</svg>
