<svg width="51" height="52" viewBox="0 0 51 52" fill="none" xmlns="http://www.w3.org/2000/svg">
<path d="M8.6543 51.3613H42.3457C45.1777 51.3613 47.2969 50.6582 48.7031 49.252C50.1094 47.8457 50.8125 45.7559 50.8125 42.9824V9.11523C50.8125 6.3418 50.1094 4.25195 48.7031 2.8457C47.2969 1.43945 45.1777 0.736328 42.3457 0.736328H8.6543C5.82227 0.736328 3.69336 1.43945 2.26758 2.8457C0.861328 4.23242 0.158203 6.32227 0.158203 9.11523V42.9824C0.158203 45.7754 0.861328 47.8652 2.26758 49.252C3.69336 50.6582 5.82227 51.3613 8.6543 51.3613ZM17.0332 41.0781C16.584 41.0781 16.2227 40.9316 15.9492 40.6387C15.6953 40.3262 15.5684 39.8965 15.5684 39.3496V15.3262C15.5684 13.9395 15.9199 12.9043 16.623 12.2207C17.3262 11.5176 18.3516 11.166 19.6992 11.166H31.3301C32.6777 11.166 33.7031 11.5176 34.4062 12.2207C35.1094 12.9043 35.4609 13.9395 35.4609 15.3262V39.3496C35.4609 39.8965 35.3242 40.3262 35.0508 40.6387C34.7773 40.9316 34.416 41.0781 33.9668 41.0781C33.6152 41.0781 33.293 40.9707 33 40.7559C32.7266 40.5215 32.2969 40.1113 31.7109 39.5254L25.6172 33.5195C25.5391 33.4414 25.4609 33.4414 25.3828 33.5195L19.3184 39.5254C18.7129 40.1113 18.2637 40.5215 17.9707 40.7559C17.6973 40.9707 17.3848 41.0781 17.0332 41.0781Z" fill="#FC7942" fill-opacity="0.8"/>
</svg>
