<svg width="167" height="38" viewBox="0 0 167 38" fill="none" xmlns="http://www.w3.org/2000/svg">
<g clip-path="url(#clip0_9_7)">
<path d="M29.3928 0.493652H21.1698C21.1836 3.78849 20.4217 7.04031 18.9457 9.98611C17.4698 12.9319 15.3213 15.489 12.6739 17.4505L9.41968 19.8859L22.0166 37.0807H32.395L20.7919 21.2576C23.5312 18.5401 25.7023 15.3047 27.179 11.7399C28.6556 8.17513 29.4081 4.35215 29.3928 0.493652Z" fill="black"/>
<path d="M0 37.0807H8.41893V0.493652H0V37.0807Z" fill="black"/>
<path d="M34.8445 37.0667H42.7735V0.500732H34.8445V37.0667Z" fill="black"/>
<path d="M112.315 11.096C109.292 11.096 106.43 12.0338 104.519 14.5952V11.7749H96.9752V37.0666H104.61V23.7699C104.61 19.9209 107.186 18.0383 110.293 18.0383C113.624 18.0383 115.535 20.0258 115.535 23.7139V37.0666H123.1V20.9706C123.1 15.085 118.418 11.082 112.315 11.082V11.096Z" fill="black"/>
<path d="M59.8424 30.9293C58.0702 30.9745 56.3525 30.3144 55.0666 29.0941C53.7807 27.8738 53.0317 26.193 52.9841 24.4209C53.0811 22.6667 53.8464 21.0162 55.1226 19.8087C56.3988 18.6012 58.0889 17.9283 59.8459 17.9283C61.6028 17.9283 63.293 18.6012 64.5692 19.8087C65.8454 21.0162 66.6106 22.6667 66.7077 24.4209C66.6601 26.1943 65.9101 27.8761 64.6226 29.0966C63.3352 30.3171 61.6158 30.9764 59.8424 30.9293ZM66.7287 11.775V13.3916C65.0018 12.2151 63.0228 11.4606 60.9511 11.1887C58.8793 10.9168 56.7726 11.1352 54.8007 11.8262C52.8287 12.5173 51.0466 13.6618 49.5978 15.1675C48.1489 16.6732 47.0739 18.498 46.4593 20.4951C45.8446 22.4922 45.7075 24.6057 46.0589 26.6655C46.4103 28.7253 47.2405 30.6737 48.4826 32.354C49.7247 34.0343 51.344 35.3995 53.2101 36.3396C55.0762 37.2797 57.137 37.7685 59.2265 37.7666C61.9004 37.7824 64.5162 36.9869 66.7287 35.4852V37.1018H74.3078V11.775H66.7287Z" fill="black"/>
<path d="M86.0228 15.0711V11.7749H78.2687V37.0667H86.0368V25.2606C86.0368 21.2716 90.3547 19.1301 93.357 19.1301H93.441V11.7749C90.3687 11.7749 87.5414 13.0906 86.0228 15.0711Z" fill="black"/>
<path d="M139.742 30.9293C137.97 30.9745 136.252 30.3144 134.966 29.0941C133.68 27.8738 132.931 26.193 132.883 24.4209C132.981 22.6667 133.746 21.0162 135.022 19.8087C136.298 18.6012 137.988 17.9283 139.745 17.9283C141.502 17.9283 143.192 18.6012 144.469 19.8087C145.745 21.0162 146.51 22.6667 146.607 24.4209C146.559 26.1943 145.809 27.8761 144.522 29.0966C143.235 30.3171 141.515 30.9764 139.742 30.9293ZM146.635 11.775V13.3916C144.629 12.0251 142.289 11.2315 139.866 11.096C137.443 10.9605 135.028 11.4884 132.883 12.6228C130.737 13.7572 128.942 15.4552 127.689 17.5341C126.437 19.6129 125.775 21.994 125.775 24.4209C125.775 26.8479 126.437 29.2289 127.689 31.3078C128.942 33.3866 130.737 35.0846 132.883 36.219C135.028 37.3534 137.443 37.8813 139.866 37.7458C142.289 37.6104 144.629 36.8167 146.635 35.4502V37.0668H154.207V11.775H146.635Z" fill="black"/>
<path d="M162.248 28.0947C161.307 28.0933 160.386 28.3713 159.602 28.8933C158.819 29.4154 158.208 30.1581 157.847 31.0276C157.485 31.897 157.39 32.8541 157.573 33.7777C157.756 34.7013 158.208 35.5498 158.874 36.2161C159.539 36.8823 160.387 37.3362 161.31 37.5204C162.233 37.7046 163.191 37.6108 164.061 37.2508C164.931 36.8908 165.674 36.2809 166.197 35.4982C166.721 34.7154 167 33.7951 167 32.8536C167.001 32.229 166.879 31.6103 166.64 31.033C166.402 30.4556 166.052 29.931 165.611 29.489C165.169 29.047 164.645 28.6964 164.068 28.4571C163.491 28.2179 162.873 28.0947 162.248 28.0947Z" fill="black"/>
</g>
<defs>
<clipPath id="clip0_9_7">
<rect width="167" height="37.2728" fill="white" transform="translate(0 0.493652)"/>
</clipPath>
</defs>
</svg>
