<svg width="57" height="58" viewBox="0 0 57 58" fill="none" xmlns="http://www.w3.org/2000/svg">
<path d="M28.5 57.0566C32.3477 57.0566 35.9609 56.3242 39.3398 54.8594C42.7188 53.3945 45.6973 51.373 48.2754 48.7949C50.873 46.2168 52.9043 43.2383 54.3691 39.8594C55.834 36.4609 56.5664 32.8379 56.5664 28.9902C56.5664 25.1621 55.8242 21.5586 54.3398 18.1797C52.875 14.7812 50.8438 11.793 48.2461 9.21484C45.668 6.61719 42.6895 4.58594 39.3105 3.12109C35.9316 1.65625 32.3184 0.923828 28.4707 0.923828C24.6426 0.923828 21.0391 1.65625 17.6602 3.12109C14.2812 4.58594 11.293 6.61719 8.69531 9.21484C6.11719 11.793 4.0957 14.7812 2.63086 18.1797C1.16602 21.5586 0.433594 25.1621 0.433594 28.9902C0.433594 32.8379 1.16602 36.4609 2.63086 39.8594C4.11523 43.2383 6.14648 46.2168 8.72461 48.7949C11.3027 51.373 14.2812 53.3945 17.6602 54.8594C21.0391 56.3242 24.6523 57.0566 28.5 57.0566Z" fill="#FC7942" fill-opacity="0.8"/>
</svg>
