<svg width="165" height="63" viewBox="0 0 165 63" fill="none" xmlns="http://www.w3.org/2000/svg">
<path fill-rule="evenodd" clip-rule="evenodd" d="M5.29493 10.6836L2.15833 2.73646C1.5635 1.22935 2.91382 -0.322546 4.4887 0.0582286L18.0891 3.34657C19.3583 3.11886 20.6653 3 22 3H143C155.15 3 165 12.8497 165 25V41C165 53.1503 155.15 63 143 63H22C9.84973 63 0 53.1503 0 41V25C0 19.5329 1.99422 14.5315 5.29493 10.6836Z" fill="#CFF6FE"/>
<path d="M23.1484 28.7197C23.7181 28.7197 24.0029 28.4349 24.0029 27.8652V25.082C24.0029 24.4554 24.1616 23.9834 24.479 23.666C24.8045 23.3405 25.2684 23.1777 25.8706 23.1777H28.7148C29.2926 23.1777 29.5815 22.897 29.5815 22.3354C29.5815 21.7739 29.2926 21.4932 28.7148 21.4932H25.8462C24.6662 21.4932 23.7791 21.7861 23.1851 22.3721C22.5991 22.9499 22.3062 23.8206 22.3062 24.9844V27.8652C22.3062 28.4349 22.5869 28.7197 23.1484 28.7197ZM43.8516 28.7197C44.4131 28.7197 44.6938 28.4349 44.6938 27.8652V24.9844C44.6938 23.8288 44.3968 22.958 43.8027 22.3721C43.2168 21.7861 42.3338 21.4932 41.1538 21.4932H38.2852C37.7155 21.4932 37.4307 21.7739 37.4307 22.3354C37.4307 22.897 37.7155 23.1777 38.2852 23.1777H41.1294C41.7316 23.1777 42.1955 23.3405 42.521 23.666C42.8465 23.9834 43.0093 24.4554 43.0093 25.082V27.8652C43.0093 28.4349 43.29 28.7197 43.8516 28.7197ZM25.8462 43.8809H28.7148C29.2926 43.8809 29.5815 43.6001 29.5815 43.0386C29.5815 42.4771 29.2926 42.1963 28.7148 42.1963H25.8706C25.2684 42.1963 24.8045 42.0335 24.479 41.708C24.1616 41.3906 24.0029 40.9186 24.0029 40.292V37.5088C24.0029 36.9391 23.7181 36.6543 23.1484 36.6543C22.5869 36.6543 22.3062 36.9391 22.3062 37.5088V40.3896C22.3062 41.5534 22.5991 42.4242 23.1851 43.002C23.7791 43.5879 24.6662 43.8809 25.8462 43.8809ZM38.2852 43.8809H41.1538C42.3338 43.8809 43.2168 43.5879 43.8027 43.002C44.3968 42.416 44.6938 41.5452 44.6938 40.3896V37.5088C44.6938 36.9391 44.4131 36.6543 43.8516 36.6543C43.29 36.6543 43.0093 36.9391 43.0093 37.5088V40.292C43.0093 40.9186 42.8465 41.3906 42.521 41.708C42.1955 42.0335 41.7316 42.1963 41.1294 42.1963H38.2852C37.7155 42.1963 37.4307 42.4771 37.4307 43.0386C37.4307 43.6001 37.7155 43.8809 38.2852 43.8809ZM28.666 37.4355H38.3584C38.9199 37.4355 39.3431 37.2931 39.6279 37.0083C39.9209 36.7235 40.0674 36.3044 40.0674 35.751V31.4175H26.957V35.751C26.957 36.3125 27.0994 36.7357 27.3843 37.0205C27.6772 37.2972 28.1045 37.4355 28.666 37.4355ZM29.2275 35.7144C28.8613 35.7144 28.6782 35.5394 28.6782 35.1895V34.1519C28.6782 33.7938 28.8613 33.6147 29.2275 33.6147H30.6069C30.9731 33.6147 31.1562 33.7938 31.1562 34.1519V35.1895C31.1562 35.5394 30.9731 35.7144 30.6069 35.7144H29.2275ZM26.957 30.1479H40.0674V29.6475C40.0674 29.0859 39.9209 28.6668 39.6279 28.3901C39.3431 28.1053 38.9199 27.9629 38.3584 27.9629H28.666C28.1045 27.9629 27.6772 28.1053 27.3843 28.3901C27.0994 28.6668 26.957 29.0859 26.957 29.6475V30.1479Z" fill="#131313"/>
<path d="M71.9 25.15V23.15H60.9V41H63.275V32.925H71.175V30.925H63.275V25.15H71.9ZM76.451 25.75V23.25H74.051V25.75H76.451ZM74.126 41H76.376V28.075H74.126V41ZM85.7191 27.775C83.5441 27.775 82.2191 29.225 81.8691 30.7H81.8441V28.075H79.5941V41H81.8441V34.15C81.8441 30.775 83.5191 29.675 85.4191 29.675C87.1691 29.675 88.1441 30.575 88.1441 32.85V41H90.3941V32.625C90.3941 30 89.1191 27.775 85.7191 27.775ZM104.563 23.15H91.2383V25.15H96.7133V41H99.0883V25.15H104.563V23.15ZM115.804 34.75C115.754 31.425 114.329 27.775 109.779 27.775C106.129 27.775 103.479 30.575 103.479 34.475C103.479 38.525 106.004 41.3 109.829 41.3C112.704 41.3 114.879 39.9 115.604 37.15H113.404C112.954 38.75 111.504 39.425 109.779 39.425C107.479 39.425 105.829 37.85 105.654 35.15H115.804V34.75ZM105.679 33.35C105.979 31.125 107.454 29.625 109.779 29.625C112.079 29.625 113.329 31.1 113.529 33.35H105.679ZM129.965 37.05H127.69C127.115 38.575 126.04 39.425 124.165 39.425C121.54 39.425 119.865 37.3 119.865 34.55C119.865 31.775 121.54 29.625 124.165 29.625C126.265 29.625 127.14 30.775 127.615 31.95H129.865C129.315 29.6 127.54 27.775 124.24 27.775C120.215 27.775 117.615 30.65 117.615 34.55C117.615 38.45 120.215 41.3 124.24 41.3C127.365 41.3 129.24 39.75 129.965 37.05ZM138.6 27.775C136.425 27.775 135.1 29.225 134.75 30.7H134.725V23.15H132.475V41H134.725V34.15C134.725 30.775 136.4 29.675 138.3 29.675C140.05 29.675 141.025 30.575 141.025 32.85V41H143.275V32.625C143.275 30 142 27.775 138.6 27.775Z" fill="#131313"/>
</svg>
