<svg width="167" height="64" viewBox="0 0 167 64" fill="none" xmlns="http://www.w3.org/2000/svg">
<path fill-rule="evenodd" clip-rule="evenodd" d="M161.541 11.0989L164.842 2.73646C165.436 1.22935 164.086 -0.322546 162.511 0.0582286L147.338 3.72688C146.57 3.64573 145.79 3.60412 145 3.60412H22C9.84973 3.60412 0 13.4539 0 25.6041V41.6041C0 53.7544 9.84973 63.6041 22 63.6041H145C157.15 63.6041 167 53.7544 167 41.6041V25.6041C167 20.0471 164.94 14.9713 161.541 11.0989Z" fill="#FECFEB"/>
<path d="M26.6982 30.3555C26.6982 30.6322 26.7715 30.8478 26.918 31.0024C27.0726 31.1571 27.2923 31.2344 27.5771 31.2344H29.7744V33.4194C29.7744 33.6799 29.8477 33.8914 29.9941 34.0542C30.1406 34.2088 30.3481 34.2861 30.6167 34.2861C30.8608 34.2861 31.0562 34.2088 31.2026 34.0542C31.3573 33.8914 31.4346 33.6799 31.4346 33.4194V31.2344H33.5342C33.8271 31.2344 34.055 31.1571 34.2178 31.0024C34.3805 30.8478 34.4619 30.6322 34.4619 30.3555C34.4619 30.1032 34.3805 29.8997 34.2178 29.7451C34.055 29.5824 33.8271 29.501 33.5342 29.501H31.4346V27.3281C31.4346 27.0677 31.3573 26.8602 31.2026 26.7056C31.0562 26.5428 30.8608 26.4614 30.6167 26.4614C30.3481 26.4614 30.1406 26.5428 29.9941 26.7056C29.8477 26.8602 29.7744 27.0677 29.7744 27.3281V29.501H27.5771C27.2923 29.501 27.0726 29.5824 26.918 29.7451C26.7715 29.8997 26.6982 30.1032 26.6982 30.3555ZM43.1655 30.1724C43.6213 30.1724 44.0037 30.0177 44.313 29.7085C44.6304 29.3993 44.7891 29.0168 44.7891 28.561C44.7891 28.0972 44.6304 27.7106 44.313 27.4014C44.0037 27.084 43.6213 26.9253 43.1655 26.9253C42.7098 26.9253 42.3232 27.084 42.0059 27.4014C41.6966 27.7106 41.542 28.0972 41.542 28.561C41.542 29.0168 41.6966 29.3993 42.0059 29.7085C42.3232 30.0177 42.7098 30.1724 43.1655 30.1724ZM39.7109 33.6025C40.1748 33.6025 40.5614 33.4479 40.8706 33.1387C41.1799 32.8294 41.3345 32.4469 41.3345 31.9912C41.3345 31.5273 41.1799 31.1408 40.8706 30.8315C40.5614 30.5142 40.1748 30.3555 39.7109 30.3555C39.2633 30.3555 38.8809 30.5142 38.5635 30.8315C38.2542 31.1408 38.0996 31.5273 38.0996 31.9912C38.0996 32.4469 38.2542 32.8294 38.5635 33.1387C38.8809 33.4479 39.2633 33.6025 39.7109 33.6025ZM19.4229 38.6807C19.4229 39.5677 19.6019 40.3408 19.96 41C20.318 41.651 20.8226 42.1556 21.4736 42.5137C22.1247 42.8717 22.8815 43.0508 23.7441 43.0508C24.3952 43.0508 25.0299 42.9084 25.6484 42.6235C26.2751 42.3387 26.8285 41.9033 27.3086 41.3174L29.4204 38.7539C29.5669 38.5667 29.7256 38.4284 29.8965 38.3389C30.0755 38.2493 30.2505 38.2046 30.4214 38.2046H41.5786C41.7495 38.2046 41.9204 38.2493 42.0913 38.3389C42.2703 38.4284 42.4331 38.5667 42.5796 38.7539L44.6914 41.3174C45.1715 41.9033 45.7209 42.3387 46.3394 42.6235C46.966 42.9084 47.6089 43.0508 48.2681 43.0508C49.1307 43.0508 49.8835 42.8717 50.5264 42.5137C51.1774 42.1556 51.682 41.651 52.04 41C52.3981 40.3408 52.5771 39.5677 52.5771 38.6807C52.5771 38.111 52.512 37.5007 52.3818 36.8496C52.2598 36.1904 52.0889 35.4824 51.8691 34.7256C51.6331 33.9362 51.3442 33.0776 51.0024 32.1499C50.6688 31.214 50.3066 30.2741 49.916 29.3301C49.5254 28.3779 49.1307 27.4868 48.7319 26.6567C48.4064 25.965 48.1012 25.3953 47.8164 24.9478C47.5316 24.492 47.1654 24.1217 46.7178 23.8369C46.2783 23.5521 45.6598 23.3201 44.8623 23.1411C43.7637 22.8888 42.4657 22.6895 40.9683 22.543C39.479 22.3883 37.8229 22.311 36 22.311C34.1771 22.311 32.5169 22.3883 31.0195 22.543C29.5303 22.6895 28.2404 22.8888 27.1499 23.1411C26.3524 23.3201 25.7298 23.5521 25.2822 23.8369C24.8346 24.1217 24.4684 24.492 24.1836 24.9478C23.8988 25.3953 23.5936 25.965 23.2681 26.6567C22.8693 27.4868 22.4746 28.3779 22.084 29.3301C21.6934 30.2741 21.3312 31.214 20.9976 32.1499C20.6639 33.0776 20.3791 33.9362 20.1431 34.7256C19.9152 35.4824 19.7362 36.1904 19.606 36.8496C19.4839 37.5007 19.4229 38.111 19.4229 38.6807ZM21.0342 38.7539C21.0342 38.3877 21.0749 37.9727 21.1562 37.5088C21.2458 37.0368 21.3923 36.4631 21.5957 35.7876C21.8398 34.925 22.141 33.9932 22.499 32.9922C22.8571 31.9912 23.2355 30.9943 23.6343 30.0015C24.0412 29.0005 24.444 28.0728 24.8428 27.2183C25.0299 26.8032 25.2131 26.4411 25.3921 26.1318C25.5711 25.8145 25.8031 25.55 26.0879 25.3384C26.3809 25.1187 26.7837 24.9478 27.2964 24.8257C28.3543 24.5734 29.6198 24.374 31.0928 24.2275C32.5658 24.0729 34.2015 23.9956 36 23.9956C37.8066 23.9956 39.4465 24.0729 40.9194 24.2275C42.3924 24.374 43.6579 24.5734 44.7158 24.8257C45.2285 24.9478 45.6273 25.1187 45.9121 25.3384C46.1969 25.55 46.4289 25.8145 46.6079 26.1318C46.7869 26.4411 46.9701 26.8032 47.1572 27.2183C47.5641 28.0728 47.967 29.0005 48.3657 30.0015C48.7645 30.9943 49.1388 31.9912 49.4888 32.9922C49.8468 33.9932 50.1561 34.925 50.4165 35.7876C50.62 36.4631 50.7624 37.0368 50.8438 37.5088C50.9251 37.9727 50.9658 38.3877 50.9658 38.7539C50.9658 39.5758 50.7095 40.231 50.1968 40.7192C49.6922 41.1994 49.0575 41.4395 48.2925 41.4395C47.3729 41.4395 46.5509 41 45.8267 40.1211L43.6538 37.5088C43.3853 37.1751 43.1086 36.9269 42.8237 36.7642C42.5389 36.6014 42.1442 36.52 41.6396 36.52H30.3726C29.8599 36.52 29.4611 36.6014 29.1763 36.7642C28.8914 36.9269 28.6147 37.1751 28.3462 37.5088L26.1855 40.1211C25.8356 40.5443 25.4491 40.8698 25.0259 41.0977C24.6027 41.3255 24.1673 41.4395 23.7197 41.4395C22.9466 41.4395 22.3037 41.1994 21.791 40.7192C21.2865 40.231 21.0342 39.5758 21.0342 38.7539Z" fill="#131313"/>
<path d="M72.125 31.9V33.85L77.7 33.8C77.7 37.8 74.675 39.425 71.75 39.425C67.525 39.425 65.375 35.8 65.375 32.075C65.375 28.35 67.6 24.725 72 24.725C75.175 24.725 76.725 26.3 77.35 28.4H79.725C78.925 25.425 76.525 22.725 72 22.725C66.175 22.725 63 27.2 63 32.075C63 36.95 65.925 41.425 71.75 41.425C75.025 41.425 77.025 39.925 77.85 37.575L78.15 41H79.65L79.875 31.9H72.125ZM91.3301 41H93.7301C93.6301 40.375 93.5301 39.35 93.5301 38.375V32.825C93.5301 30.825 93.0801 27.75 88.3301 27.75C84.9551 27.75 83.4301 30.05 83.3551 31.975H85.6051C85.7051 30.525 86.8301 29.65 88.4051 29.65C90.2551 29.65 91.2801 30.425 91.2801 31.5C91.2801 32.575 90.7301 33.05 89.0301 33.35C87.0801 33.7 82.4801 33.675 82.4801 37.475C82.4801 39.325 83.9051 41.3 87.0051 41.3C89.8801 41.3 90.9551 39.625 91.2551 38.625H91.2801V39.125C91.2801 39.85 91.2801 40.375 91.3301 41ZM87.4051 39.475C85.8301 39.475 84.7051 38.7 84.7051 37.475C84.7051 36.025 85.8301 35.625 87.7051 35.3C90.4301 34.825 91.0301 34.1 91.2801 33.275H91.3301V35C91.3301 38.2 89.3801 39.475 87.4051 39.475ZM110.006 27.775C108.156 27.775 106.756 29.175 106.381 30.5H106.331C105.856 28.8 104.681 27.775 102.481 27.775C100.431 27.775 99.2561 29.225 98.9561 30.7H98.9311V28.075H96.6811V41H98.9311V34.15C98.9311 30.775 100.156 29.675 101.931 29.675C103.581 29.675 104.381 30.725 104.381 32.85V41H106.606V34.15C106.606 30.675 107.906 29.675 109.481 29.675C111.156 29.675 111.981 30.725 111.981 32.85V41H114.231V32.625C114.231 30 113.131 27.775 110.006 27.775ZM119.637 25.75V23.25H117.237V25.75H119.637ZM117.312 41H119.562V28.075H117.312V41ZM128.905 27.775C126.73 27.775 125.405 29.225 125.055 30.7H125.03V28.075H122.78V41H125.03V34.15C125.03 30.775 126.705 29.675 128.605 29.675C130.355 29.675 131.33 30.575 131.33 32.85V41H133.58V32.625C133.58 30 132.305 27.775 128.905 27.775ZM146.297 28.075V30.7H146.272C145.847 29.225 144.447 27.775 141.922 27.775C138.222 27.775 135.922 30.525 135.922 34.375C135.922 38.25 138.222 41.05 141.922 41.05C144.447 41.05 145.847 39.65 146.272 38.175H146.297V40C146.297 42.925 144.747 44.05 142.697 44.05C140.647 44.05 139.222 43.4 138.972 41.55H136.722C136.997 44.35 139.497 45.95 142.697 45.95C145.897 45.95 148.547 43.825 148.547 40V28.075H146.297ZM138.172 34.375C138.172 31.85 139.522 29.675 142.272 29.675C145.047 29.675 146.372 31.975 146.372 34.5C146.372 36.8 145.447 39.125 142.272 39.125C139.447 39.125 138.172 36.925 138.172 34.375Z" fill="#131313"/>
</svg>
