<svg width="57" height="58" viewBox="0 0 57 58" fill="none" xmlns="http://www.w3.org/2000/svg">
<path d="M28.5 55.709C30.3945 55.709 32.1719 55.0449 33.832 53.7168C35.5117 52.4082 36.9863 50.5625 38.2559 48.1797C39.5449 45.7773 40.5508 42.9551 41.2734 39.7129C42.0156 36.4707 42.3867 32.916 42.3867 29.0488C42.3867 25.2012 42.0254 21.6465 41.3027 18.3848C40.5801 15.123 39.5742 12.291 38.2852 9.88867C36.9961 7.48633 35.5117 5.63086 33.832 4.32227C32.1719 3.01367 30.3945 2.35938 28.5 2.35938C26.6055 2.35938 24.8184 3.01367 23.1387 4.32227C21.4785 5.63086 20.0039 7.48633 18.7148 9.88867C17.4453 12.291 16.4492 15.123 15.7266 18.3848C15.0039 21.6465 14.6426 25.2012 14.6426 29.0488C14.6426 32.916 15.0039 36.4707 15.7266 39.7129C16.4492 42.9551 17.4453 45.7773 18.7148 48.1797C20.0039 50.5625 21.4883 52.4082 23.168 53.7168C24.8477 55.0449 26.625 55.709 28.5 55.709ZM28.5 5.40625C29.8867 5.40625 31.2051 6.03125 32.4551 7.28125C33.7246 8.53125 34.8379 10.25 35.7949 12.4375C36.7715 14.625 37.543 17.1445 38.1094 19.9961C38.6758 22.8477 38.959 25.8652 38.959 29.0488C38.959 32.1934 38.6758 35.1816 38.1094 38.0137C37.543 40.8457 36.7715 43.3652 35.7949 45.5723C34.8379 47.7598 33.7246 49.4785 32.4551 50.7285C31.2051 51.998 29.8867 52.6328 28.5 52.6328C27.1328 52.6328 25.8145 51.998 24.5449 50.7285C23.2754 49.4785 22.1523 47.7598 21.1758 45.5723C20.2188 43.3652 19.457 40.8457 18.8906 38.0137C18.3242 35.1816 18.041 32.1934 18.041 29.0488C18.041 25.8652 18.3242 22.8477 18.8906 19.9961C19.457 17.1445 20.2188 14.625 21.1758 12.4375C22.1523 10.25 23.2754 8.53125 24.5449 7.28125C25.8145 6.03125 27.1328 5.40625 28.5 5.40625ZM26.8301 2.74023V55.1816H30.1699V2.74023H26.8301ZM28.5 39.6543C25.6875 39.6543 23.0117 39.8887 20.4727 40.3574C17.9336 40.8262 15.6582 41.4902 13.6465 42.3496C11.6348 43.1895 9.97461 44.1953 8.66602 45.3672L11.2148 47.4766C13.0703 46.0508 15.4629 44.9473 18.3926 44.166C21.3418 43.3848 24.7109 42.9941 28.5 42.9941C32.3086 42.9941 35.6777 43.3848 38.6074 44.166C41.5371 44.9473 43.9297 46.0508 45.7852 47.4766L48.334 45.3672C47.0449 44.1953 45.3848 43.1895 43.3535 42.3496C41.3418 41.4902 39.0664 40.8262 36.5273 40.3574C34.0078 39.8887 31.332 39.6543 28.5 39.6543ZM54.1348 27.3496H2.86523V30.6602H54.1348V27.3496ZM28.5 18.4727C31.332 18.4727 34.0078 18.2383 36.5273 17.7695C39.0664 17.3008 41.3418 16.6367 43.3535 15.7773C45.3848 14.918 47.0449 13.9121 48.334 12.7598L45.7852 10.6504C43.9297 12.0957 41.5371 13.209 38.6074 13.9902C35.6777 14.752 32.3086 15.1328 28.5 15.1328C24.7109 15.1328 21.3418 14.752 18.3926 13.9902C15.4629 13.209 13.0703 12.0957 11.2148 10.6504L8.66602 12.7598C9.97461 13.9121 11.6348 14.918 13.6465 15.7773C15.6582 16.6367 17.9336 17.3008 20.4727 17.7695C23.0117 18.2383 25.6875 18.4727 28.5 18.4727ZM28.5 57.0566C32.3477 57.0566 35.9609 56.3242 39.3398 54.8594C42.7188 53.3945 45.6973 51.373 48.2754 48.7949C50.873 46.2168 52.9043 43.2383 54.3691 39.8594C55.834 36.4609 56.5664 32.8379 56.5664 28.9902C56.5664 25.1621 55.8242 21.5586 54.3398 18.1797C52.875 14.7812 50.8438 11.793 48.2461 9.21484C45.668 6.61719 42.6895 4.58594 39.3105 3.12109C35.9316 1.65625 32.3184 0.923828 28.4707 0.923828C24.6426 0.923828 21.0391 1.65625 17.6602 3.12109C14.2812 4.58594 11.293 6.61719 8.69531 9.21484C6.11719 11.793 4.0957 14.7812 2.63086 18.1797C1.16602 21.5586 0.433594 25.1621 0.433594 28.9902C0.433594 32.8379 1.16602 36.4609 2.63086 39.8594C4.11523 43.2383 6.14648 46.2168 8.72461 48.7949C11.3027 51.373 14.2812 53.3945 17.6602 54.8594C21.0391 56.3242 24.6523 57.0566 28.5 57.0566ZM28.5 53.5996C25.1406 53.5996 21.9668 52.9551 18.9785 51.666C16.0098 50.3965 13.3926 48.6289 11.127 46.3633C8.86133 44.0977 7.08398 41.4805 5.79492 38.5117C4.52539 35.5234 3.89062 32.3496 3.89062 28.9902C3.89062 25.6309 4.52539 22.4668 5.79492 19.498C7.08398 16.5293 8.86133 13.9121 11.127 11.6465C13.3926 9.38086 16.0098 7.60352 18.9785 6.31445C21.9473 5.02539 25.1113 4.38086 28.4707 4.38086C31.8496 4.38086 35.0234 5.02539 37.9922 6.31445C40.9609 7.60352 43.5781 9.38086 45.8438 11.6465C48.1094 13.9121 49.8867 16.5293 51.1758 19.498C52.4648 22.4668 53.1094 25.6309 53.1094 28.9902C53.1094 32.3496 52.4648 35.5234 51.1758 38.5117C49.8867 41.4805 48.1094 44.0977 45.8438 46.3633C43.5781 48.6289 40.9609 50.3965 37.9922 51.666C35.0234 52.9551 31.8594 53.5996 28.5 53.5996Z" fill="#FC7942" fill-opacity="0.8"/>
</svg>
