<svg width="343" height="50" viewBox="0 0 343 50" fill="none" xmlns="http://www.w3.org/2000/svg">
<path opacity="0.3" d="M343 2C343 0.895432 342.105 0 341 0H2C0.895416 0 0 0.895431 0 2V48C0 49.1046 0.895416 50 2 50H341C342.105 50 343 49.1046 343 48V2Z" fill="#FECFEB"/>
<path d="M115.07 23.6147C115.07 23.8804 115.141 24.0874 115.281 24.2358C115.43 24.3843 115.641 24.4585 115.914 24.4585H118.023V26.5562C118.023 26.8062 118.094 27.0093 118.234 27.1655C118.375 27.314 118.574 27.3882 118.832 27.3882C119.066 27.3882 119.254 27.314 119.395 27.1655C119.543 27.0093 119.617 26.8062 119.617 26.5562V24.4585H121.633C121.914 24.4585 122.133 24.3843 122.289 24.2358C122.445 24.0874 122.523 23.8804 122.523 23.6147C122.523 23.3726 122.445 23.1772 122.289 23.0288C122.133 22.8726 121.914 22.7944 121.633 22.7944H119.617V20.7085C119.617 20.4585 119.543 20.2593 119.395 20.1108C119.254 19.9546 119.066 19.8765 118.832 19.8765C118.574 19.8765 118.375 19.9546 118.234 20.1108C118.094 20.2593 118.023 20.4585 118.023 20.7085V22.7944H115.914C115.641 22.7944 115.43 22.8726 115.281 23.0288C115.141 23.1772 115.07 23.3726 115.07 23.6147ZM130.879 23.439C131.316 23.439 131.684 23.2905 131.98 22.9937C132.285 22.6968 132.438 22.3296 132.438 21.8921C132.438 21.4468 132.285 21.0757 131.98 20.7788C131.684 20.4741 131.316 20.3218 130.879 20.3218C130.441 20.3218 130.07 20.4741 129.766 20.7788C129.469 21.0757 129.32 21.4468 129.32 21.8921C129.32 22.3296 129.469 22.6968 129.766 22.9937C130.07 23.2905 130.441 23.439 130.879 23.439ZM127.562 26.7319C128.008 26.7319 128.379 26.5835 128.676 26.2866C128.973 25.9897 129.121 25.6226 129.121 25.1851C129.121 24.7397 128.973 24.3687 128.676 24.0718C128.379 23.7671 128.008 23.6147 127.562 23.6147C127.133 23.6147 126.766 23.7671 126.461 24.0718C126.164 24.3687 126.016 24.7397 126.016 25.1851C126.016 25.6226 126.164 25.9897 126.461 26.2866C126.766 26.5835 127.133 26.7319 127.562 26.7319ZM108.086 31.6069C108.086 32.4585 108.258 33.2007 108.602 33.8335C108.945 34.4585 109.43 34.9429 110.055 35.2866C110.68 35.6304 111.406 35.8022 112.234 35.8022C112.859 35.8022 113.469 35.6655 114.062 35.3921C114.664 35.1187 115.195 34.7007 115.656 34.1382L117.684 31.6772C117.824 31.4976 117.977 31.3647 118.141 31.2788C118.312 31.1929 118.48 31.1499 118.645 31.1499H129.355C129.52 31.1499 129.684 31.1929 129.848 31.2788C130.02 31.3647 130.176 31.4976 130.316 31.6772L132.344 34.1382C132.805 34.7007 133.332 35.1187 133.926 35.3921C134.527 35.6655 135.145 35.8022 135.777 35.8022C136.605 35.8022 137.328 35.6304 137.945 35.2866C138.57 34.9429 139.055 34.4585 139.398 33.8335C139.742 33.2007 139.914 32.4585 139.914 31.6069C139.914 31.0601 139.852 30.4741 139.727 29.8491C139.609 29.2163 139.445 28.5366 139.234 27.8101C139.008 27.0522 138.73 26.228 138.402 25.3374C138.082 24.439 137.734 23.5366 137.359 22.6304C136.984 21.7163 136.605 20.8608 136.223 20.064C135.91 19.3999 135.617 18.853 135.344 18.4233C135.07 17.9858 134.719 17.6304 134.289 17.3569C133.867 17.0835 133.273 16.8608 132.508 16.689C131.453 16.4468 130.207 16.2554 128.77 16.1147C127.34 15.9663 125.75 15.8921 124 15.8921C122.25 15.8921 120.656 15.9663 119.219 16.1147C117.789 16.2554 116.551 16.4468 115.504 16.689C114.738 16.8608 114.141 17.0835 113.711 17.3569C113.281 17.6304 112.93 17.9858 112.656 18.4233C112.383 18.853 112.09 19.3999 111.777 20.064C111.395 20.8608 111.016 21.7163 110.641 22.6304C110.266 23.5366 109.918 24.439 109.598 25.3374C109.277 26.228 109.004 27.0522 108.777 27.8101C108.559 28.5366 108.387 29.2163 108.262 29.8491C108.145 30.4741 108.086 31.0601 108.086 31.6069ZM109.633 31.6772C109.633 31.3257 109.672 30.9272 109.75 30.4819C109.836 30.0288 109.977 29.478 110.172 28.8296C110.406 28.0015 110.695 27.1069 111.039 26.146C111.383 25.1851 111.746 24.228 112.129 23.2749C112.52 22.314 112.906 21.4233 113.289 20.603C113.469 20.2046 113.645 19.8569 113.816 19.5601C113.988 19.2554 114.211 19.0015 114.484 18.7983C114.766 18.5874 115.152 18.4233 115.645 18.3062C116.66 18.064 117.875 17.8726 119.289 17.7319C120.703 17.5835 122.273 17.5093 124 17.5093C125.734 17.5093 127.309 17.5835 128.723 17.7319C130.137 17.8726 131.352 18.064 132.367 18.3062C132.859 18.4233 133.242 18.5874 133.516 18.7983C133.789 19.0015 134.012 19.2554 134.184 19.5601C134.355 19.8569 134.531 20.2046 134.711 20.603C135.102 21.4233 135.488 22.314 135.871 23.2749C136.254 24.228 136.613 25.1851 136.949 26.146C137.293 27.1069 137.59 28.0015 137.84 28.8296C138.035 29.478 138.172 30.0288 138.25 30.4819C138.328 30.9272 138.367 31.3257 138.367 31.6772C138.367 32.4663 138.121 33.0952 137.629 33.564C137.145 34.0249 136.535 34.2554 135.801 34.2554C134.918 34.2554 134.129 33.8335 133.434 32.9897L131.348 30.4819C131.09 30.1616 130.824 29.9233 130.551 29.7671C130.277 29.6108 129.898 29.5327 129.414 29.5327H118.598C118.105 29.5327 117.723 29.6108 117.449 29.7671C117.176 29.9233 116.91 30.1616 116.652 30.4819L114.578 32.9897C114.242 33.396 113.871 33.7085 113.465 33.9272C113.059 34.146 112.641 34.2554 112.211 34.2554C111.469 34.2554 110.852 34.0249 110.359 33.564C109.875 33.0952 109.633 32.4663 109.633 31.6772Z" fill="#131313"/>
<path d="M159.72 25.4305V27.3025L165.072 27.2545C165.072 31.0945 162.168 32.6545 159.36 32.6545C155.304 32.6545 153.24 29.1745 153.24 25.5985C153.24 22.0225 155.376 18.5425 159.6 18.5425C162.648 18.5425 164.136 20.0545 164.736 22.0705H167.016C166.248 19.2145 163.944 16.6225 159.6 16.6225C154.008 16.6225 150.96 20.9185 150.96 25.5985C150.96 30.2785 153.768 34.5745 159.36 34.5745C162.504 34.5745 164.424 33.1345 165.216 30.8785L165.504 34.1665H166.944L167.16 25.4305H159.72ZM178.157 34.1665H180.461C180.365 33.5665 180.269 32.5825 180.269 31.6465V26.3185C180.269 24.3985 179.837 21.4465 175.277 21.4465C172.037 21.4465 170.573 23.6545 170.501 25.5025H172.661C172.757 24.1105 173.837 23.2705 175.349 23.2705C177.125 23.2705 178.109 24.0145 178.109 25.0465C178.109 26.0785 177.581 26.5345 175.949 26.8225C174.077 27.1585 169.661 27.1345 169.661 30.7825C169.661 32.5585 171.029 34.4545 174.005 34.4545C176.765 34.4545 177.797 32.8465 178.085 31.8865H178.109V32.3665C178.109 33.0625 178.109 33.5665 178.157 34.1665ZM174.389 32.7025C172.877 32.7025 171.797 31.9585 171.797 30.7825C171.797 29.3905 172.877 29.0065 174.677 28.6945C177.293 28.2385 177.869 27.5425 178.109 26.7505H178.157V28.4065C178.157 31.4785 176.285 32.7025 174.389 32.7025ZM196.086 21.4705C194.31 21.4705 192.966 22.8145 192.606 24.0865H192.558C192.102 22.4545 190.974 21.4705 188.862 21.4705C186.894 21.4705 185.766 22.8625 185.478 24.2785H185.454V21.7585H183.294V34.1665H185.454V27.5905C185.454 24.3505 186.63 23.2945 188.334 23.2945C189.918 23.2945 190.686 24.3025 190.686 26.3425V34.1665H192.822V27.5905C192.822 24.2545 194.07 23.2945 195.582 23.2945C197.19 23.2945 197.982 24.3025 197.982 26.3425V34.1665H200.142V26.1265C200.142 23.6065 199.086 21.4705 196.086 21.4705ZM205.331 19.5265V17.1265H203.027V19.5265H205.331ZM203.099 34.1665H205.259V21.7585H203.099V34.1665ZM214.229 21.4705C212.141 21.4705 210.869 22.8625 210.533 24.2785H210.509V21.7585H208.349V34.1665H210.509V27.5905C210.509 24.3505 212.117 23.2945 213.941 23.2945C215.621 23.2945 216.557 24.1585 216.557 26.3425V34.1665H218.717V26.1265C218.717 23.6065 217.493 21.4705 214.229 21.4705ZM230.926 21.7585V24.2785H230.902C230.494 22.8625 229.15 21.4705 226.726 21.4705C223.174 21.4705 220.966 24.1105 220.966 27.8065C220.966 31.5265 223.174 34.2145 226.726 34.2145C229.15 34.2145 230.494 32.8705 230.902 31.4545H230.926V33.2065C230.926 36.0145 229.438 37.0945 227.47 37.0945C225.502 37.0945 224.134 36.4705 223.894 34.6945H221.734C221.998 37.3825 224.398 38.9185 227.47 38.9185C230.542 38.9185 233.086 36.8785 233.086 33.2065V21.7585H230.926ZM223.126 27.8065C223.126 25.3825 224.422 23.2945 227.062 23.2945C229.726 23.2945 230.998 25.5025 230.998 27.9265C230.998 30.1345 230.11 32.3665 227.062 32.3665C224.35 32.3665 223.126 30.2545 223.126 27.8065Z" fill="#131313"/>
</svg>
