<svg width="343" height="50" viewBox="0 0 343 50" fill="none" xmlns="http://www.w3.org/2000/svg">
<path opacity="0.3" d="M0 2C0 0.895432 0.895431 0 2 0H341C342.105 0 343 0.895431 343 2V48C343 49.1046 342.105 50 341 50H1.99999C0.895424 50 0 49.1046 0 48V2Z" fill="#E7CFFE"/>
<path d="M128.48 36.3296C129.574 36.3296 130.352 36.0913 130.812 35.6147C131.273 35.146 131.504 34.603 131.504 33.9858C131.504 33.2124 131.27 32.5562 130.801 32.0171C130.34 31.478 129.656 31.0679 128.75 30.7866C127.852 30.5054 126.734 30.3647 125.398 30.3647C125.086 30.3647 124.816 30.3726 124.59 30.3882C124.363 30.396 124.16 30.4077 123.98 30.4233C123.809 30.439 123.652 30.4585 123.512 30.4819L122.715 28.5952C122.145 27.2358 121.48 26.1616 120.723 25.3726C119.965 24.5835 119.148 24.021 118.273 23.6851C117.406 23.3413 116.52 23.1694 115.613 23.1694C115.387 23.1694 115.152 23.1772 114.91 23.1929C114.668 23.2085 114.438 23.2397 114.219 23.2866C113.969 23.3491 113.789 23.4429 113.68 23.5679C113.578 23.6929 113.527 23.8374 113.527 24.0015C113.527 24.1968 113.59 24.353 113.715 24.4702C113.848 24.5796 114.02 24.6343 114.23 24.6343C114.457 24.6187 114.664 24.603 114.852 24.5874C115.047 24.564 115.277 24.5522 115.543 24.5522C116.387 24.5522 117.16 24.7124 117.863 25.0327C118.566 25.353 119.223 25.8804 119.832 26.6147C120.441 27.3491 121.02 28.3374 121.566 29.5796L122.609 31.9702C123.023 31.8921 123.441 31.8218 123.863 31.7593C124.293 31.6968 124.816 31.6655 125.434 31.6655C126.215 31.6655 126.953 31.7437 127.648 31.8999C128.352 32.0562 128.922 32.2983 129.359 32.6265C129.797 32.9468 130.016 33.3608 130.016 33.8687C130.016 34.1577 129.879 34.396 129.605 34.5835C129.332 34.771 128.957 34.8647 128.48 34.8647C127.949 34.8647 127.465 34.814 127.027 34.7124C126.59 34.6187 126.129 34.5718 125.645 34.5718C125.191 34.5718 124.789 34.5913 124.438 34.6304C124.086 34.6772 123.773 34.7163 123.5 34.7476C123.234 34.7866 122.988 34.8062 122.762 34.8062C122.496 34.8062 122.219 34.771 121.93 34.7007C121.641 34.6304 121.348 34.478 121.051 34.2437L116.164 30.189C114.414 30.2671 112.895 30.0679 111.605 29.5913C110.316 29.1147 109.293 28.3218 108.535 27.2124C107.949 27.2749 107.469 27.1968 107.094 26.978C106.727 26.7515 106.543 26.4038 106.543 25.9351C106.543 25.5054 106.715 25.1616 107.059 24.9038C107.41 24.6382 107.891 24.521 108.5 24.5522C109.086 22.6772 109.988 21.2866 111.207 20.3804C112.434 19.4741 113.91 19.021 115.637 19.021C116.535 19.021 117.426 19.1694 118.309 19.4663C119.191 19.7632 120.055 20.1421 120.898 20.603C121.75 21.064 122.566 21.5405 123.348 22.0327C124.137 22.5249 124.875 22.9741 125.562 23.3804C125.969 23.6226 126.363 23.7905 126.746 23.8843C127.129 23.978 127.465 24.0249 127.754 24.0249C128.332 24.0249 128.859 23.8413 129.336 23.4741C129.812 23.0991 130.281 22.5327 130.742 21.7749L123.465 17.3101C123.145 17.1226 122.828 16.9155 122.516 16.689C122.203 16.4624 121.945 16.2515 121.742 16.0562C121.539 15.8608 121.438 15.7085 121.438 15.5991C121.438 15.3726 121.582 15.1694 121.871 14.9897C122.16 14.8022 122.516 14.6538 122.938 14.5444C123.367 14.4351 123.777 14.3804 124.168 14.3804C125.066 14.3804 125.898 14.6265 126.664 15.1187C127.43 15.6108 128.148 16.271 128.82 17.0991L132.148 21.1772C132.922 21.1382 133.641 21.2476 134.305 21.5054C134.977 21.7632 135.562 22.1421 136.062 22.6421C136.57 23.1343 136.965 23.7124 137.246 24.3765C137.527 25.0405 137.668 25.7671 137.668 26.5562C137.668 27.5327 137.414 28.2085 136.906 28.5835C136.406 28.9507 135.559 29.1343 134.363 29.1343C133.621 29.1343 132.859 28.9937 132.078 28.7124C131.297 28.4312 130.57 28.0562 129.898 27.5874C129.195 27.7905 128.496 28.0405 127.801 28.3374C127.105 28.6343 126.434 28.9663 125.785 29.3335C125.137 29.7007 124.527 30.0991 123.957 30.5288L125.094 31.2202C125.922 30.7358 126.742 30.2983 127.555 29.9077C128.375 29.5171 129.066 29.2085 129.629 28.9819C130.293 29.4429 131.059 29.8062 131.926 30.0718C132.793 30.3374 133.594 30.4663 134.328 30.4585C135.32 30.4507 136.168 30.3296 136.871 30.0952C137.582 29.8608 138.121 29.4585 138.488 28.8882C138.855 28.3179 139.039 27.5366 139.039 26.5444C139.039 25.6069 138.875 24.7358 138.547 23.9312C138.219 23.1265 137.766 22.4272 137.188 21.8335C136.617 21.2319 135.961 20.7671 135.219 20.439C134.477 20.103 133.688 19.939 132.852 19.9468L130.414 16.5835C129.523 15.3804 128.566 14.4546 127.543 13.8062C126.527 13.1499 125.398 12.8218 124.156 12.8218C123.664 12.8218 123.152 12.8843 122.621 13.0093C122.09 13.1343 121.598 13.314 121.145 13.5483C120.691 13.7827 120.324 14.0562 120.043 14.3687C119.77 14.6812 119.633 15.021 119.633 15.3882C119.633 15.7944 119.77 16.1694 120.043 16.5132C120.316 16.8569 120.672 17.1851 121.109 17.4976C121.555 17.8101 122.031 18.1304 122.539 18.4585C122.969 18.7163 123.426 18.9897 123.91 19.2788C124.395 19.5679 124.891 19.8647 125.398 20.1694C125.914 20.4741 126.438 20.7827 126.969 21.0952C127.5 21.3999 128.023 21.7007 128.539 21.9976C128.359 22.1616 128.203 22.2827 128.07 22.3608C127.938 22.439 127.797 22.478 127.648 22.478C127.453 22.478 127.23 22.4312 126.98 22.3374C126.738 22.2437 126.449 22.0952 126.113 21.8921C125.027 21.2827 124.031 20.7085 123.125 20.1694C122.227 19.6304 121.371 19.1577 120.559 18.7515C119.754 18.3374 118.953 18.0132 118.156 17.7788C117.359 17.5444 116.527 17.4272 115.66 17.4272C113.629 17.4272 111.895 17.9468 110.457 18.9858C109.02 20.0171 107.949 21.5366 107.246 23.5444C106.559 23.6772 106.004 23.9585 105.582 24.3882C105.16 24.8101 104.949 25.3608 104.949 26.0405C104.949 26.603 105.078 27.0718 105.336 27.4468C105.602 27.8218 105.945 28.1108 106.367 28.314C106.789 28.5171 107.242 28.6343 107.727 28.6655C108.109 29.2671 108.672 29.8101 109.414 30.2944C110.164 30.7788 111.055 31.146 112.086 31.396C113.125 31.646 114.262 31.7202 115.496 31.6187L120.254 35.4976C120.59 35.771 120.949 35.978 121.332 36.1187C121.723 36.2593 122.191 36.3296 122.738 36.3296C123.184 36.3296 123.625 36.2788 124.062 36.1772C124.5 36.0757 125.043 36.0249 125.691 36.0249C126.293 36.0249 126.785 36.0757 127.168 36.1772C127.551 36.2788 127.988 36.3296 128.48 36.3296ZM114.98 37.5132C115.73 37.5132 116.457 37.439 117.16 37.2905C117.871 37.1499 118.543 36.9038 119.176 36.5522C119.816 36.2085 120.41 35.7358 120.957 35.1343L119.703 34.2788C119.352 34.7007 118.934 35.0483 118.449 35.3218C117.965 35.603 117.426 35.8101 116.832 35.9429C116.238 36.0757 115.602 36.1421 114.922 36.1421C114.125 36.1421 113.488 36.0054 113.012 35.7319C112.535 35.4585 112.297 35.0913 112.297 34.6304C112.297 34.396 112.375 34.2007 112.531 34.0444C112.695 33.8882 112.945 33.8101 113.281 33.8101C113.609 33.8101 113.953 33.8452 114.312 33.9155C114.672 33.9858 115.055 34.021 115.461 34.021C116.094 34.021 116.625 33.9624 117.055 33.8452C117.492 33.728 117.914 33.4702 118.32 33.0718L117.219 32.1108C116.93 32.3608 116.672 32.5249 116.445 32.603C116.219 32.6812 115.969 32.7202 115.695 32.7202C115.305 32.7202 114.922 32.6772 114.547 32.5913C114.18 32.5054 113.785 32.4624 113.363 32.4624C112.613 32.4624 112.004 32.6616 111.535 33.0601C111.074 33.4585 110.844 33.9819 110.844 34.6304C110.844 35.5522 111.219 36.2632 111.969 36.7632C112.727 37.2632 113.73 37.5132 114.98 37.5132ZM133.66 25.8062C133.926 25.8062 134.152 25.7124 134.34 25.5249C134.535 25.3374 134.633 25.1108 134.633 24.8452C134.633 24.5796 134.535 24.3491 134.34 24.1538C134.152 23.9585 133.926 23.8608 133.66 23.8608C133.402 23.8608 133.176 23.9585 132.98 24.1538C132.793 24.3491 132.699 24.5796 132.699 24.8452C132.699 25.1108 132.793 25.3374 132.98 25.5249C133.176 25.7124 133.402 25.8062 133.66 25.8062Z" fill="#131313"/>
<path d="M159.136 21.9505H161.416C161.224 18.4225 158.896 16.6225 155.416 16.6225C152.32 16.6225 149.416 18.3265 149.488 21.6385C149.56 24.8785 152.608 25.7185 155.44 26.4865C157.624 27.0865 159.784 27.4705 159.784 29.5825C159.784 31.6705 157.648 32.6545 155.632 32.6545C153.088 32.6545 151.288 31.3825 151.24 28.7425H148.96C148.96 32.7505 151.84 34.5745 155.632 34.5745C158.704 34.5745 162.064 33.0145 162.064 29.5105C162.064 25.8385 158.752 25.2865 155.872 24.5185C153.616 23.9185 151.768 23.2225 151.768 21.4705C151.768 19.3825 153.52 18.5425 155.416 18.5425C157.744 18.5425 158.872 19.6945 159.136 21.9505ZM169.743 23.5345V21.7585H167.367V17.7505H167.295L165.255 18.7105V21.7585H163.407V23.5345H165.255V30.8305C165.255 32.5585 166.287 34.1665 168.495 34.1665H169.479V32.4385H168.711C167.823 32.4385 167.367 31.6705 167.367 30.6865V23.5345H169.743ZM179.813 34.1665H182.117C182.021 33.5665 181.925 32.5825 181.925 31.6465V26.3185C181.925 24.3985 181.493 21.4465 176.933 21.4465C173.693 21.4465 172.229 23.6545 172.157 25.5025H174.317C174.413 24.1105 175.493 23.2705 177.005 23.2705C178.781 23.2705 179.765 24.0145 179.765 25.0465C179.765 26.0785 179.237 26.5345 177.605 26.8225C175.733 27.1585 171.317 27.1345 171.317 30.7825C171.317 32.5585 172.685 34.4545 175.661 34.4545C178.421 34.4545 179.453 32.8465 179.741 31.8865H179.765V32.3665C179.765 33.0625 179.765 33.5665 179.813 34.1665ZM176.045 32.7025C174.533 32.7025 173.453 31.9585 173.453 30.7825C173.453 29.3905 174.533 29.0065 176.333 28.6945C178.949 28.2385 179.525 27.5425 179.765 26.7505H179.813V28.4065C179.813 31.4785 177.941 32.7025 176.045 32.7025ZM190.806 23.7505V21.5905C189.15 21.7105 187.71 22.6945 187.158 24.7585H187.134L187.11 21.7585H184.95V34.1665H187.11V28.2865C187.11 25.4305 188.598 23.8945 190.806 23.7505ZM198.243 23.5345V21.7585H195.867V17.7505H195.795L193.755 18.7105V21.7585H191.907V23.5345H193.755V30.8305C193.755 32.5585 194.787 34.1665 196.995 34.1665H197.979V32.4385H197.211C196.323 32.4385 195.867 31.6705 195.867 30.6865V23.5345H198.243ZM208.553 21.7585V28.3345C208.553 31.5745 206.945 32.6305 205.121 32.6305C203.441 32.6305 202.505 31.7665 202.505 29.5825V21.7585H200.345V29.7985C200.345 32.3185 201.569 34.4545 204.833 34.4545C206.921 34.4545 208.193 33.0625 208.529 31.6465H208.553V34.1665H210.713V21.7585H208.553ZM220.138 21.4705C217.714 21.4705 216.37 22.8625 215.962 24.2785H215.938V21.7585H213.778V38.9665H215.938V31.6945H215.962C216.37 33.1105 217.714 34.4545 220.138 34.4545C223.69 34.4545 225.898 31.6465 225.898 27.9265C225.898 24.2305 223.69 21.4705 220.138 21.4705ZM219.802 32.6305C216.754 32.6305 215.866 30.3745 215.866 27.9265C215.866 25.5025 217.138 23.2945 219.802 23.2945C222.442 23.2945 223.738 25.5025 223.738 27.9265C223.738 30.3745 222.514 32.6305 219.802 32.6305ZM235.149 25.5025H237.285C237.045 22.7665 234.909 21.4705 232.485 21.4705C230.301 21.4705 227.901 22.7905 227.901 25.1185C227.901 27.5425 230.397 28.4305 231.957 28.7905C233.613 29.1745 235.341 29.3425 235.341 30.7345C235.341 32.1745 233.877 32.6305 232.653 32.6305C230.973 32.6305 229.989 32.0065 229.701 30.4225H227.541C227.757 33.4945 230.493 34.4545 232.581 34.4545C234.741 34.4545 237.501 33.2545 237.501 30.6145C237.501 28.5505 235.557 27.6145 233.733 27.2065C232.053 26.8225 230.061 26.4625 230.061 25.0225C230.061 23.9665 231.237 23.2945 232.413 23.2945C233.661 23.2945 235.005 23.8945 235.149 25.5025Z" fill="#131313"/>
</svg>
