<svg width="343" height="50" viewBox="0 0 343 50" fill="none" xmlns="http://www.w3.org/2000/svg">
<path opacity="0.3" d="M343 2C343 0.895432 342.105 0 341 0H2C0.895416 0 0 0.895431 0 2V48C0 49.1046 0.895416 50 2 50H341C342.105 50 343 49.1046 343 48V2Z" fill="#FEF9CF"/>
<path d="M102.469 22.5962C103.141 22.5962 103.75 22.4321 104.297 22.104C104.852 21.7681 105.297 21.3267 105.633 20.7798C105.969 20.2251 106.137 19.6157 106.137 18.9517C106.137 18.2798 105.969 17.6704 105.633 17.1235C105.297 16.5688 104.852 16.1235 104.297 15.7876C103.75 15.4517 103.141 15.2837 102.469 15.2837C101.805 15.2837 101.195 15.4517 100.641 15.7876C100.086 16.1235 99.6406 16.5688 99.3047 17.1235C98.9766 17.6704 98.8125 18.2798 98.8125 18.9517C98.8125 19.6157 98.9766 20.2251 99.3047 20.7798C99.6406 21.3267 100.086 21.7681 100.641 22.104C101.195 22.4321 101.805 22.5962 102.469 22.5962ZM102.469 20.979C102.102 20.979 101.762 20.8892 101.449 20.7095C101.145 20.522 100.898 20.2759 100.711 19.9712C100.523 19.6587 100.43 19.3188 100.43 18.9517C100.43 18.5767 100.523 18.2368 100.711 17.9321C100.898 17.6196 101.145 17.3696 101.449 17.1821C101.762 16.9946 102.102 16.9009 102.469 16.9009C102.844 16.9009 103.184 16.9946 103.488 17.1821C103.801 17.3696 104.047 17.6196 104.227 17.9321C104.414 18.2368 104.508 18.5767 104.508 18.9517C104.508 19.3188 104.414 19.6587 104.227 19.9712C104.047 20.2759 103.801 20.522 103.488 20.7095C103.184 20.8892 102.844 20.979 102.469 20.979ZM110.531 22.5962C111.195 22.5962 111.805 22.4321 112.359 22.104C112.914 21.7681 113.355 21.3267 113.684 20.7798C114.02 20.2251 114.188 19.6157 114.188 18.9517C114.188 18.2798 114.02 17.6704 113.684 17.1235C113.355 16.5688 112.914 16.1235 112.359 15.7876C111.805 15.4517 111.195 15.2837 110.531 15.2837C109.867 15.2837 109.258 15.4517 108.703 15.7876C108.148 16.1235 107.703 16.5688 107.367 17.1235C107.039 17.6704 106.875 18.2798 106.875 18.9517C106.875 19.6157 107.039 20.2251 107.367 20.7798C107.703 21.3267 108.148 21.7681 108.703 22.104C109.258 22.4321 109.867 22.5962 110.531 22.5962ZM110.531 20.979C110.156 20.979 109.812 20.8892 109.5 20.7095C109.195 20.522 108.949 20.2759 108.762 19.9712C108.582 19.6587 108.492 19.3188 108.492 18.9517C108.492 18.5767 108.582 18.2368 108.762 17.9321C108.949 17.6196 109.195 17.3696 109.5 17.1821C109.812 16.9946 110.156 16.9009 110.531 16.9009C110.898 16.9009 111.238 16.9946 111.551 17.1821C111.863 17.3696 112.109 17.6196 112.289 17.9321C112.477 18.2368 112.57 18.5767 112.57 18.9517C112.57 19.3188 112.477 19.6587 112.289 19.9712C112.109 20.2759 111.863 20.522 111.551 20.7095C111.238 20.8892 110.898 20.979 110.531 20.979ZM98.4492 29.8267C99.1133 29.8267 99.7227 29.6626 100.277 29.3345C100.832 28.9985 101.273 28.5532 101.602 27.9985C101.938 27.436 102.105 26.8228 102.105 26.1587C102.105 25.4946 101.938 24.8853 101.602 24.3306C101.273 23.7759 100.832 23.3345 100.277 23.0063C99.7227 22.6704 99.1133 22.5024 98.4492 22.5024C97.7773 22.5024 97.1641 22.6704 96.6094 23.0063C96.0625 23.3345 95.6211 23.7759 95.2852 24.3306C94.9492 24.8853 94.7812 25.4946 94.7812 26.1587C94.7812 26.8228 94.9492 27.436 95.2852 27.9985C95.6211 28.5532 96.0625 28.9985 96.6094 29.3345C97.1641 29.6626 97.7773 29.8267 98.4492 29.8267ZM98.4492 28.2095C98.0742 28.2095 97.7305 28.1157 97.418 27.9282C97.1133 27.7407 96.8672 27.4907 96.6797 27.1782C96.5 26.8657 96.4102 26.5259 96.4102 26.1587C96.4102 25.7915 96.5 25.4556 96.6797 25.1509C96.8672 24.8384 97.1133 24.5884 97.418 24.4009C97.7305 24.2134 98.0742 24.1196 98.4492 24.1196C98.8164 24.1196 99.1562 24.2134 99.4688 24.4009C99.7812 24.5884 100.027 24.8384 100.207 25.1509C100.395 25.4556 100.488 25.7915 100.488 26.1587C100.488 26.5259 100.395 26.8657 100.207 27.1782C100.027 27.4907 99.7812 27.7407 99.4688 27.9282C99.1562 28.1157 98.8164 28.2095 98.4492 28.2095ZM106.5 29.8267C107.164 29.8267 107.773 29.6626 108.328 29.3345C108.883 28.9985 109.324 28.5532 109.652 27.9985C109.988 27.436 110.156 26.8228 110.156 26.1587C110.156 25.4946 109.988 24.8853 109.652 24.3306C109.324 23.7759 108.883 23.3345 108.328 23.0063C107.773 22.6704 107.164 22.5024 106.5 22.5024C105.836 22.5024 105.227 22.6704 104.672 23.0063C104.117 23.3345 103.672 23.7759 103.336 24.3306C103.008 24.8853 102.844 25.4946 102.844 26.1587C102.844 26.8228 103.008 27.436 103.336 27.9985C103.672 28.5532 104.117 28.9985 104.672 29.3345C105.227 29.6626 105.836 29.8267 106.5 29.8267ZM106.5 28.2095C106.133 28.2095 105.793 28.1157 105.48 27.9282C105.176 27.7407 104.93 27.4907 104.742 27.1782C104.555 26.8657 104.461 26.5259 104.461 26.1587C104.461 25.7915 104.555 25.4556 104.742 25.1509C104.93 24.8384 105.176 24.5884 105.48 24.4009C105.793 24.2134 106.133 24.1196 106.5 24.1196C106.875 24.1196 107.215 24.2134 107.52 24.4009C107.832 24.5884 108.078 24.8384 108.258 25.1509C108.445 25.4556 108.539 25.7915 108.539 26.1587C108.539 26.5259 108.445 26.8657 108.258 27.1782C108.078 27.4907 107.832 27.7407 107.52 27.9282C107.215 28.1157 106.875 28.2095 106.5 28.2095ZM114.562 29.8267C115.227 29.8267 115.836 29.6626 116.391 29.3345C116.945 28.9985 117.387 28.5532 117.715 27.9985C118.051 27.436 118.219 26.8228 118.219 26.1587C118.219 25.4946 118.051 24.8853 117.715 24.3306C117.387 23.7759 116.945 23.3345 116.391 23.0063C115.836 22.6704 115.227 22.5024 114.562 22.5024C113.898 22.5024 113.289 22.6704 112.734 23.0063C112.18 23.3345 111.734 23.7759 111.398 24.3306C111.07 24.8853 110.906 25.4946 110.906 26.1587C110.906 26.8228 111.07 27.436 111.398 27.9985C111.734 28.5532 112.18 28.9985 112.734 29.3345C113.289 29.6626 113.898 29.8267 114.562 29.8267ZM114.562 28.2095C114.188 28.2095 113.844 28.1157 113.531 27.9282C113.227 27.7407 112.98 27.4907 112.793 27.1782C112.613 26.8657 112.523 26.5259 112.523 26.1587C112.523 25.7915 112.613 25.4556 112.793 25.1509C112.98 24.8384 113.227 24.5884 113.531 24.4009C113.844 24.2134 114.188 24.1196 114.562 24.1196C114.93 24.1196 115.27 24.2134 115.582 24.4009C115.895 24.5884 116.141 24.8384 116.32 25.1509C116.508 25.4556 116.602 25.7915 116.602 26.1587C116.602 26.5259 116.508 26.8657 116.32 27.1782C116.141 27.4907 115.895 27.7407 115.582 27.9282C115.27 28.1157 114.93 28.2095 114.562 28.2095ZM102.469 37.0337C103.141 37.0337 103.75 36.8657 104.297 36.5298C104.852 36.2017 105.297 35.7603 105.633 35.2056C105.969 34.6509 106.137 34.0415 106.137 33.3774C106.137 32.7134 105.969 32.1079 105.633 31.561C105.297 31.0063 104.852 30.5649 104.297 30.2368C103.75 29.9009 103.141 29.7329 102.469 29.7329C101.805 29.7329 101.195 29.9009 100.641 30.2368C100.086 30.5649 99.6406 31.0063 99.3047 31.561C98.9766 32.1079 98.8125 32.7134 98.8125 33.3774C98.8125 34.0415 98.9766 34.6509 99.3047 35.2056C99.6406 35.7603 100.086 36.2017 100.641 36.5298C101.195 36.8657 101.805 37.0337 102.469 37.0337ZM102.469 35.4165C102.102 35.4165 101.762 35.3228 101.449 35.1353C101.145 34.9556 100.898 34.7095 100.711 34.397C100.523 34.0923 100.43 33.7524 100.43 33.3774C100.43 33.0103 100.523 32.6743 100.711 32.3696C100.898 32.0571 101.145 31.811 101.449 31.6313C101.762 31.4438 102.102 31.3501 102.469 31.3501C102.844 31.3501 103.184 31.4438 103.488 31.6313C103.801 31.811 104.047 32.0571 104.227 32.3696C104.414 32.6743 104.508 33.0103 104.508 33.3774C104.508 33.7524 104.414 34.0923 104.227 34.397C104.047 34.7095 103.801 34.9556 103.488 35.1353C103.184 35.3228 102.844 35.4165 102.469 35.4165ZM110.531 37.0337C111.195 37.0337 111.805 36.8657 112.359 36.5298C112.914 36.2017 113.355 35.7603 113.684 35.2056C114.02 34.6509 114.188 34.0415 114.188 33.3774C114.188 32.7134 114.02 32.1079 113.684 31.561C113.355 31.0063 112.914 30.5649 112.359 30.2368C111.805 29.9009 111.195 29.7329 110.531 29.7329C109.867 29.7329 109.258 29.9009 108.703 30.2368C108.148 30.5649 107.703 31.0063 107.367 31.561C107.039 32.1079 106.875 32.7134 106.875 33.3774C106.875 34.0415 107.039 34.6509 107.367 35.2056C107.703 35.7603 108.148 36.2017 108.703 36.5298C109.258 36.8657 109.867 37.0337 110.531 37.0337ZM110.531 35.4165C110.156 35.4165 109.812 35.3228 109.5 35.1353C109.195 34.9556 108.949 34.7095 108.762 34.397C108.582 34.0923 108.492 33.7524 108.492 33.3774C108.492 33.0103 108.582 32.6743 108.762 32.3696C108.949 32.0571 109.195 31.811 109.5 31.6313C109.812 31.4438 110.156 31.3501 110.531 31.3501C110.898 31.3501 111.238 31.4438 111.551 31.6313C111.863 31.811 112.109 32.0571 112.289 32.3696C112.477 32.6743 112.57 33.0103 112.57 33.3774C112.57 33.7524 112.477 34.0923 112.289 34.397C112.109 34.7095 111.863 34.9556 111.551 35.1353C111.238 35.3228 110.898 35.4165 110.531 35.4165Z" fill="#131313"/>
<path d="M128.824 34.4961H134.92C135.784 34.4961 135.928 34.4961 136.168 34.4721C139.192 34.2321 140.824 32.0001 140.824 29.6481C140.824 27.4161 139.024 25.9041 136.672 25.6641V25.6401C138.88 25.2801 140.104 23.5041 140.104 21.9441C140.104 19.3521 138.496 17.6481 135.76 17.3841C135.544 17.3601 135.4 17.3601 133.984 17.3601H128.824V34.4961ZM131.104 24.8001V19.2801H134.632C136.624 19.2801 137.824 20.0241 137.824 21.9441C137.824 23.8641 136.624 24.8001 134.632 24.8001H131.104ZM131.104 32.5761V26.7201H135.304C137.2 26.7201 138.544 27.8241 138.544 29.6481C138.544 31.4961 137.2 32.5761 135.304 32.5761H131.104ZM143.234 17.3601V34.4961H145.394V17.3601H143.234ZM154.096 34.7841C157.864 34.7841 160.312 31.9521 160.312 28.3041C160.312 24.6561 157.864 21.8001 154.096 21.8001C150.328 21.8001 147.88 24.6561 147.88 28.3041C147.88 31.9521 150.328 34.7841 154.096 34.7841ZM154.096 32.9601C151.672 32.9601 150.04 30.8481 150.04 28.3041C150.04 25.7361 151.672 23.6241 154.096 23.6241C156.52 23.6241 158.152 25.7361 158.152 28.3041C158.152 30.8481 156.52 32.9601 154.096 32.9601ZM173.892 30.7041H171.708C171.156 32.1681 170.124 32.9841 168.324 32.9841C165.804 32.9841 164.196 30.9441 164.196 28.3041C164.196 25.6401 165.804 23.5761 168.324 23.5761C170.34 23.5761 171.18 24.6801 171.636 25.8081H173.796C173.268 23.5521 171.564 21.8001 168.396 21.8001C164.532 21.8001 162.036 24.5601 162.036 28.3041C162.036 32.0481 164.532 34.7841 168.396 34.7841C171.396 34.7841 173.196 33.2961 173.892 30.7041ZM184.174 34.4961H186.934L181.27 27.3201L186.454 22.0881H183.838L178.462 27.5121V17.3601H176.302V34.4961H178.462V30.1521L179.782 28.8321L184.174 34.4961ZM199.415 30.7041H197.231C196.679 32.1681 195.647 32.9841 193.847 32.9841C191.327 32.9841 189.719 30.9441 189.719 28.3041C189.719 25.6401 191.327 23.5761 193.847 23.5761C195.863 23.5761 196.703 24.6801 197.159 25.8081H199.319C198.791 23.5521 197.087 21.8001 193.919 21.8001C190.055 21.8001 187.559 24.5601 187.559 28.3041C187.559 32.0481 190.055 34.7841 193.919 34.7841C196.919 34.7841 198.719 33.2961 199.415 30.7041ZM207.705 21.8001C205.617 21.8001 204.345 23.1921 204.009 24.6081H203.985V17.3601H201.825V34.4961H203.985V27.9201C203.985 24.6801 205.593 23.6241 207.417 23.6241C209.097 23.6241 210.033 24.4881 210.033 26.6721V34.4961H212.193V26.4561C212.193 23.9361 210.969 21.8001 207.705 21.8001ZM222.938 34.4961H225.242C225.146 33.8961 225.05 32.9121 225.05 31.9761V26.6481C225.05 24.7281 224.618 21.7761 220.058 21.7761C216.818 21.7761 215.354 23.9841 215.282 25.8321H217.442C217.538 24.4401 218.618 23.6001 220.13 23.6001C221.906 23.6001 222.89 24.3441 222.89 25.3761C222.89 26.4081 222.362 26.8641 220.73 27.1521C218.858 27.4881 214.442 27.4641 214.442 31.1121C214.442 32.8881 215.81 34.7841 218.786 34.7841C221.546 34.7841 222.578 33.1761 222.866 32.2161H222.89V32.6961C222.89 33.3921 222.89 33.8961 222.938 34.4961ZM219.17 33.0321C217.658 33.0321 216.578 32.2881 216.578 31.1121C216.578 29.7201 217.658 29.3361 219.458 29.0241C222.074 28.5681 222.65 27.8721 222.89 27.0801H222.938V28.7361C222.938 31.8081 221.066 33.0321 219.17 33.0321ZM230.331 19.8561V17.4561H228.027V19.8561H230.331ZM228.099 34.4961H230.259V22.0881H228.099V34.4961ZM239.229 21.8001C237.141 21.8001 235.869 23.1921 235.533 24.6081H235.509V22.0881H233.349V34.4961H235.509V27.9201C235.509 24.6801 237.117 23.6241 238.941 23.6241C240.621 23.6241 241.557 24.4881 241.557 26.6721V34.4961H243.717V26.4561C243.717 23.9361 242.493 21.8001 239.229 21.8001Z" fill="#131313"/>
</svg>
