<svg width="343" height="50" viewBox="0 0 343 50" fill="none" xmlns="http://www.w3.org/2000/svg">
<path opacity="0.3" d="M0 2C0 0.895432 0.895431 0 2 0H341C342.105 0 343 0.895431 343 2V48C343 49.1046 342.105 50 341 50H1.99999C0.895424 50 0 49.1046 0 48V2Z" fill="#CFF6FE"/>
<path d="M113.562 22.8774C114.109 22.8774 114.383 22.604 114.383 22.0571V19.3853C114.383 18.7837 114.535 18.3306 114.84 18.0259C115.152 17.7134 115.598 17.5571 116.176 17.5571H118.906C119.461 17.5571 119.738 17.2876 119.738 16.7485C119.738 16.2095 119.461 15.9399 118.906 15.9399H116.152C115.02 15.9399 114.168 16.2212 113.598 16.7837C113.035 17.3384 112.754 18.1743 112.754 19.2915V22.0571C112.754 22.604 113.023 22.8774 113.562 22.8774ZM133.438 22.8774C133.977 22.8774 134.246 22.604 134.246 22.0571V19.2915C134.246 18.1821 133.961 17.3462 133.391 16.7837C132.828 16.2212 131.98 15.9399 130.848 15.9399H128.094C127.547 15.9399 127.273 16.2095 127.273 16.7485C127.273 17.2876 127.547 17.5571 128.094 17.5571H130.824C131.402 17.5571 131.848 17.7134 132.16 18.0259C132.473 18.3306 132.629 18.7837 132.629 19.3853V22.0571C132.629 22.604 132.898 22.8774 133.438 22.8774ZM116.152 37.4321H118.906C119.461 37.4321 119.738 37.1626 119.738 36.6235C119.738 36.0845 119.461 35.8149 118.906 35.8149H116.176C115.598 35.8149 115.152 35.6587 114.84 35.3462C114.535 35.0415 114.383 34.5884 114.383 33.9868V31.3149C114.383 30.7681 114.109 30.4946 113.562 30.4946C113.023 30.4946 112.754 30.7681 112.754 31.3149V34.0806C112.754 35.1978 113.035 36.0337 113.598 36.5884C114.168 37.1509 115.02 37.4321 116.152 37.4321ZM128.094 37.4321H130.848C131.98 37.4321 132.828 37.1509 133.391 36.5884C133.961 36.0259 134.246 35.1899 134.246 34.0806V31.3149C134.246 30.7681 133.977 30.4946 133.438 30.4946C132.898 30.4946 132.629 30.7681 132.629 31.3149V33.9868C132.629 34.5884 132.473 35.0415 132.16 35.3462C131.848 35.6587 131.402 35.8149 130.824 35.8149H128.094C127.547 35.8149 127.273 36.0845 127.273 36.6235C127.273 37.1626 127.547 37.4321 128.094 37.4321ZM118.859 31.2446H128.164C128.703 31.2446 129.109 31.1079 129.383 30.8345C129.664 30.561 129.805 30.1587 129.805 29.6274V25.4673H117.219V29.6274C117.219 30.1665 117.355 30.5728 117.629 30.8462C117.91 31.1118 118.32 31.2446 118.859 31.2446ZM119.398 29.5923C119.047 29.5923 118.871 29.4243 118.871 29.0884V28.0923C118.871 27.7485 119.047 27.5767 119.398 27.5767H120.723C121.074 27.5767 121.25 27.7485 121.25 28.0923V29.0884C121.25 29.4243 121.074 29.5923 120.723 29.5923H119.398ZM117.219 24.2485H129.805V23.7681C129.805 23.229 129.664 22.8267 129.383 22.561C129.109 22.2876 128.703 22.1509 128.164 22.1509H118.859C118.32 22.1509 117.91 22.2876 117.629 22.561C117.355 22.8267 117.219 23.229 117.219 23.7681V24.2485Z" fill="#131313"/>
<path d="M161.384 19.784V17.864H150.824V35H153.104V27.248H160.688V25.328H153.104V19.784H161.384ZM165.753 20.36V17.96H163.449V20.36H165.753ZM163.521 35H165.681V22.592H163.521V35ZM174.65 22.304C172.562 22.304 171.29 23.696 170.954 25.112H170.93V22.592H168.77V35H170.93V28.424C170.93 25.184 172.538 24.128 174.362 24.128C176.042 24.128 176.978 24.992 176.978 27.176V35H179.138V26.96C179.138 24.44 177.914 22.304 174.65 22.304ZM192.741 17.864H179.949V19.784H185.205V35H187.485V19.784H192.741V17.864ZM203.532 29C203.484 25.808 202.116 22.304 197.748 22.304C194.244 22.304 191.7 24.992 191.7 28.736C191.7 32.624 194.124 35.288 197.796 35.288C200.556 35.288 202.644 33.944 203.34 31.304H201.228C200.796 32.84 199.404 33.488 197.748 33.488C195.54 33.488 193.956 31.976 193.788 29.384H203.532V29ZM193.812 27.656C194.1 25.52 195.516 24.08 197.748 24.08C199.956 24.08 201.156 25.496 201.348 27.656H193.812ZM217.126 31.208H214.942C214.39 32.672 213.358 33.488 211.558 33.488C209.038 33.488 207.43 31.448 207.43 28.808C207.43 26.144 209.038 24.08 211.558 24.08C213.574 24.08 214.414 25.184 214.87 26.312H217.03C216.502 24.056 214.798 22.304 211.63 22.304C207.766 22.304 205.27 25.064 205.27 28.808C205.27 32.552 207.766 35.288 211.63 35.288C214.63 35.288 216.43 33.8 217.126 31.208ZM225.416 22.304C223.328 22.304 222.056 23.696 221.72 25.112H221.696V17.864H219.536V35H221.696V28.424C221.696 25.184 223.304 24.128 225.128 24.128C226.808 24.128 227.744 24.992 227.744 27.176V35H229.904V26.96C229.904 24.44 228.68 22.304 225.416 22.304Z" fill="#131313"/>
</svg>
