<svg width="54" height="56" viewBox="0 0 54 56" fill="none" xmlns="http://www.w3.org/2000/svg">
<path d="M0.251953 38.5117C0.251953 41.207 0.759766 43.6777 1.77539 45.9238C2.79102 48.1504 4.17773 49.9375 5.93555 51.2852C7.71289 52.6328 9.72461 53.3066 11.9707 53.3066H16.9219C14.4609 51.5293 12.6738 49.3418 11.5605 46.7441C10.4668 44.1465 9.91992 41.3145 9.91992 38.248C9.93945 35.9434 10.2031 33.873 10.7109 32.0371C11.2188 30.2012 11.8535 28.5898 12.6152 27.2031C13.377 25.7969 14.1484 24.5957 14.9297 23.5996H10.9746C8.94336 23.5996 7.11719 24.2637 5.49609 25.5918C3.875 26.9199 2.5957 28.7168 1.6582 30.9824C0.720703 33.2285 0.251953 35.7383 0.251953 38.5117ZM13.5234 38.3066C13.5234 40.7871 13.9824 43.1016 14.9004 45.25C15.8379 47.3789 17.1953 49.2344 18.9727 50.8164C20.75 52.418 22.8984 53.668 25.418 54.5664C27.9375 55.4648 30.7793 55.9141 33.9434 55.9141H37.6348C39.4121 55.9141 40.9355 55.8555 42.2051 55.7383C43.4941 55.6211 44.5098 55.4648 45.252 55.2695C46.3066 54.9961 47.2637 54.5078 48.123 53.8047C48.9824 53.1211 49.4121 52.1348 49.4121 50.8457C49.4121 50.3379 49.3535 49.8887 49.2363 49.498C49.1191 49.1074 48.9727 48.7656 48.7969 48.4727C48.582 48.1016 48.6309 47.8379 48.9434 47.6816C49.7832 47.3496 50.5059 46.8027 51.1113 46.041C51.7363 45.2793 52.0488 44.3613 52.0488 43.2871C52.0488 42.0566 51.7266 41.0312 51.082 40.2109C50.75 39.7812 50.8281 39.4297 51.3164 39.1562C51.9219 38.8047 52.4199 38.2676 52.8105 37.5449C53.2012 36.8223 53.3965 36.0215 53.3965 35.1426C53.3965 34.5176 53.2988 33.9023 53.1035 33.2969C52.9082 32.6914 52.6348 32.2227 52.2832 31.8906C51.9121 31.5781 51.9414 31.2266 52.3711 30.8359C52.8008 30.4648 53.1328 29.9863 53.3672 29.4004C53.6211 28.8145 53.748 28.1309 53.748 27.3496C53.748 26.041 53.2988 24.918 52.4004 23.9805C51.502 23.043 50.3789 22.5742 49.0312 22.5742H39.4219C38.2305 22.5742 37.2637 22.291 36.5215 21.7246C35.7793 21.1387 35.4082 20.3379 35.4082 19.3223C35.4082 18.4238 35.6328 17.3594 36.082 16.1289C36.5508 14.8984 37.0781 13.5996 37.6641 12.2324C38.2695 10.8457 38.7969 9.46875 39.2461 8.10156C39.7148 6.71484 39.9492 5.42578 39.9492 4.23438C39.9492 2.96484 39.5879 1.97852 38.8652 1.27539C38.1426 0.572266 37.2539 0.220703 36.1992 0.220703C35.2227 0.220703 34.4512 0.533203 33.8848 1.1582C33.3184 1.76367 32.7812 2.57422 32.2734 3.58984C30.2422 7.51562 27.9863 11.0996 25.5059 14.3418C23.0254 17.5645 20.7598 20.543 18.709 23.2773C17.5371 24.8203 16.5605 26.334 15.7793 27.8184C15.0176 29.3027 14.4512 30.8848 14.0801 32.5645C13.709 34.2441 13.5234 36.1582 13.5234 38.3066Z" fill="#FC7942" fill-opacity="0.8"/>
</svg>
