<svg width="637" height="193" viewBox="0 0 637 193" fill="none" xmlns="http://www.w3.org/2000/svg">
<rect width="637.001" height="192.215" rx="2" fill="white" fill-opacity="0.5"/>
<circle cx="92.8952" cy="94.3567" r="9.50902" fill="#9790F3"/>
<circle cx="59.2488" cy="94.3567" r="9.50902" fill="#F5C344"/>
<circle cx="92.8952" cy="60.7102" r="9.50902" fill="#F5C344"/>
<circle cx="92.8952" cy="128.006" r="9.50902" fill="#F5C344"/>
<circle cx="126.543" cy="94.3567" r="9.50902" fill="#F5C344"/>
<rect x="83.3862" width="19.018" height="36.5731" rx="9.50902" fill="#D7B584"/>
<rect y="103.866" width="19.018" height="36.5731" rx="9.50902" transform="rotate(-90 0 103.866)" fill="#9790F6"/>
<rect x="149.219" y="103.866" width="19.018" height="36.5731" rx="9.50902" transform="rotate(-90 149.219 103.866)" fill="#9790F6"/>
<rect x="144.712" y="29.2559" width="19.018" height="48.2766" rx="9.50902" transform="rotate(45 144.712 29.2559)" fill="#68C2FA"/>
<rect width="19.018" height="48.2766" rx="9.50902" transform="matrix(-0.707107 0.707107 0.707107 0.707107 42.7061 29.2559)" fill="#EF92E7"/>
<rect width="19.018" height="48.2766" rx="9.50902" transform="matrix(-0.707107 0.707107 0.707107 0.707107 124.024 111.178)" fill="#EF92E7"/>
<rect x="63.3965" y="111.178" width="19.018" height="48.2766" rx="9.50902" transform="rotate(45 63.3965 111.178)" fill="#68C2FA"/>
<rect x="83.3862" y="152.14" width="19.018" height="36.5731" rx="9.50902" fill="#D7B584"/>
<path d="M275.238 144.182C305.097 144.182 322.217 123.215 322.217 94.5495C322.217 66.0172 305.097 45.0493 275.238 45.0493C245.113 45.0493 228.259 66.0172 228.259 94.5495C228.259 123.215 245.113 144.182 275.238 144.182ZM275.238 124.674C257.853 124.674 252.147 111.138 252.147 94.5495C252.147 78.0937 257.853 64.5574 275.238 64.5574C292.49 64.5574 298.329 78.0937 298.329 94.5495C298.329 111.138 292.49 124.674 275.238 124.674ZM368.14 72.9181C360.708 72.9181 354.869 77.6956 351.551 85.2599H351.286V74.1124H330.053V142.059H351.286V110.475C351.286 96.0093 362.832 90.0374 373.714 92.0281H373.979V73.4489C371.59 72.9181 369.998 72.9181 368.14 72.9181ZM391.472 66.0172C397.444 66.0172 402.088 62.8322 402.088 56.5949C402.088 50.4903 397.444 47.1726 391.472 47.1726C385.5 47.1726 380.855 50.4903 380.855 56.5949C380.855 62.8322 385.5 66.0172 391.472 66.0172ZM380.855 74.1124V142.059H402.088V74.1124H380.855ZM445.787 144.182C423.094 144.182 409.425 129.186 409.425 108.086C409.425 86.9851 423.094 71.9891 445.787 71.9891C468.347 71.9891 482.016 86.9851 482.016 108.086C482.016 129.186 468.347 144.182 445.787 144.182ZM445.787 128.257C455.076 128.257 460.783 121.224 460.783 108.086C460.783 94.9476 455.076 87.9141 445.787 87.9141C436.364 87.9141 430.658 94.9476 430.658 108.086C430.658 121.224 436.364 128.257 445.787 128.257ZM533.122 71.9891C521.046 71.9891 514.41 77.6956 510.827 83.9328H510.562V74.1124H489.329V142.059H510.562V102.777C510.562 93.3551 515.207 89.2412 523.302 89.2412C530.335 89.2412 533.919 92.6916 533.919 102.91V142.059H555.152V96.142C555.152 80.6151 546.26 71.9891 533.122 71.9891ZM562.094 50.3576V68.5387H605.49V68.8041C589.167 82.7385 576.692 112.731 576.692 142.059H600.58C600.58 113.792 608.542 84.0656 629.377 67.2116V50.3576H562.094Z" fill="black"/>
</svg>
