<svg width="100" height="33" viewBox="0 0 100 33" fill="none" xmlns="http://www.w3.org/2000/svg">
<circle cx="16" cy="16.2519" r="1.6378" fill="#9790F3"/>
<circle cx="10.2047" cy="16.2519" r="1.6378" fill="#F5C344"/>
<circle cx="16" cy="10.4567" r="1.6378" fill="#F5C344"/>
<circle cx="16" cy="22.0472" r="1.6378" fill="#F5C344"/>
<circle cx="21.7953" cy="16.2519" r="1.6378" fill="#F5C344"/>
<rect x="14.3622" width="3.27559" height="6.29921" rx="1.6378" fill="#D7B584"/>
<rect y="17.8898" width="3.27559" height="6.29921" rx="1.6378" transform="rotate(-90 0 17.8898)" fill="#9790F6"/>
<rect x="25.7008" y="17.8898" width="3.27559" height="6.29921" rx="1.6378" transform="rotate(-90 25.7008 17.8898)" fill="#9790F6"/>
<rect x="24.9248" y="5.03937" width="3.27559" height="8.31496" rx="1.6378" transform="rotate(45 24.9248 5.03937)" fill="#68C2FA"/>
<rect width="3.27559" height="8.31496" rx="1.6378" transform="matrix(-0.707107 0.707107 0.707107 0.707107 7.35559 5.03937)" fill="#EF92E7"/>
<rect width="3.27559" height="8.31496" rx="1.6378" transform="matrix(-0.707107 0.707107 0.707107 0.707107 21.3615 19.1496)" fill="#EF92E7"/>
<rect x="10.9189" y="19.1496" width="3.27559" height="8.31496" rx="1.6378" transform="rotate(45 10.9189 19.1496)" fill="#68C2FA"/>
<rect x="14.3622" y="26.2047" width="3.27559" height="6.29921" rx="1.6378" fill="#D7B584"/>
<path d="M45.48 23.32C49.98 23.32 52.56 20.16 52.56 15.84C52.56 11.54 49.98 8.38 45.48 8.38C40.94 8.38 38.4 11.54 38.4 15.84C38.4 20.16 40.94 23.32 45.48 23.32ZM45.48 20.38C42.86 20.38 42 18.34 42 15.84C42 13.36 42.86 11.32 45.48 11.32C48.08 11.32 48.96 13.36 48.96 15.84C48.96 18.34 48.08 20.38 45.48 20.38ZM59.4809 12.58C58.3609 12.58 57.4809 13.3 56.9809 14.44H56.9409V12.76H53.7409V23H56.9409V18.24C56.9409 16.06 58.6809 15.16 60.3209 15.46H60.3609V12.66C60.0009 12.58 59.7609 12.58 59.4809 12.58ZM62.9972 11.54C63.8972 11.54 64.5972 11.06 64.5972 10.12C64.5972 9.2 63.8972 8.7 62.9972 8.7C62.0972 8.7 61.3972 9.2 61.3972 10.12C61.3972 11.06 62.0972 11.54 62.9972 11.54ZM61.3972 12.76V23H64.5972V12.76H61.3972ZM71.1828 23.32C67.7628 23.32 65.7028 21.06 65.7028 17.88C65.7028 14.7 67.7628 12.44 71.1828 12.44C74.5828 12.44 76.6428 14.7 76.6428 17.88C76.6428 21.06 74.5828 23.32 71.1828 23.32ZM71.1828 20.92C72.5828 20.92 73.4428 19.86 73.4428 17.88C73.4428 15.9 72.5828 14.84 71.1828 14.84C69.7628 14.84 68.9028 15.9 68.9028 17.88C68.9028 19.86 69.7628 20.92 71.1828 20.92ZM84.3448 12.44C82.5248 12.44 81.5248 13.3 80.9848 14.24H80.9448V12.76H77.7448V23H80.9448V17.08C80.9448 15.66 81.6448 15.04 82.8648 15.04C83.9248 15.04 84.4648 15.56 84.4648 17.1V23H87.6648V16.08C87.6648 13.74 86.3248 12.44 84.3448 12.44ZM88.7111 9.18V11.92H95.2511V11.96C92.7911 14.06 90.9111 18.58 90.9111 23H94.5111C94.5111 18.74 95.7111 14.26 98.8511 11.72V9.18H88.7111Z" fill="white"/>
</svg>
