<svg width="82" height="48" viewBox="0 0 82 48" fill="none" xmlns="http://www.w3.org/2000/svg">
<path d="M41.0586 28.5059C42.5625 28.5059 43.959 28.0957 45.248 27.2754C46.5371 26.4551 47.5723 25.3418 48.3535 23.9355C49.1348 22.5098 49.5254 20.918 49.5254 19.1602C49.5254 17.4219 49.125 15.8691 48.3242 14.502C47.543 13.1348 46.5078 12.0508 45.2188 11.25C43.9297 10.4297 42.543 10.0195 41.0586 10.0195C39.5156 10.0195 38.0996 10.4297 36.8105 11.25C35.541 12.0703 34.5156 13.1738 33.7344 14.5605C32.9531 15.9473 32.5625 17.4902 32.5625 19.1895C32.5625 20.9473 32.9531 22.5293 33.7344 23.9355C34.5156 25.3418 35.541 26.4551 36.8105 27.2754C38.0996 28.0957 39.5156 28.5059 41.0586 28.5059ZM27.0254 47.6367H54.9746C56.1074 47.6367 57.0059 47.373 57.6699 46.8457C58.334 46.3379 58.666 45.6445 58.666 44.7656C58.666 43.3789 58.2559 41.9434 57.4355 40.459C56.6152 38.9551 55.4336 37.5488 53.8906 36.2402C52.3672 34.9121 50.5215 33.8379 48.3535 33.0176C46.1855 32.1973 43.7441 31.7871 41.0293 31.7871C38.3145 31.7871 35.8633 32.1973 33.6758 33.0176C31.5078 33.8379 29.6523 34.9121 28.1094 36.2402C26.5859 37.5488 25.4141 38.9551 24.5938 40.459C23.793 41.9434 23.3926 43.3789 23.3926 44.7656C23.3926 45.6445 23.7148 46.3379 24.3594 46.8457C25.0234 47.373 25.9121 47.6367 27.0254 47.6367ZM2.12305 46.9336C2.66992 46.9336 3.13867 46.7383 3.5293 46.3477C3.91992 45.9766 4.11523 45.5078 4.11523 44.9414C4.11523 40.5273 4.73047 36.3281 5.96094 32.3438C7.21094 28.3594 8.96875 24.707 11.2344 21.3867C13.5 18.0469 16.166 15.1562 19.2324 12.7148C22.2988 10.2539 25.668 8.34961 29.3398 7.00195C33.0312 5.6543 36.9082 4.98047 40.9707 4.98047C45.0527 4.98047 48.9297 5.6543 52.6016 7.00195C56.293 8.34961 59.6719 10.2539 62.7383 12.7148C65.8242 15.1562 68.4902 18.0469 70.7363 21.3867C73.002 24.707 74.7598 28.3594 76.0098 32.3438C77.2598 36.3281 77.8848 40.5273 77.8848 44.9414C77.8848 45.5078 78.0703 45.9766 78.4414 46.3477C78.832 46.7383 79.3008 46.9336 79.8477 46.9336C80.4141 46.9336 80.9023 46.7383 81.3125 46.3477C81.7227 45.9766 81.9277 45.5078 81.9277 44.9414C81.9277 40.0977 81.2344 35.4785 79.8477 31.084C78.4609 26.6895 76.5078 22.6562 73.9883 18.9844C71.4883 15.3125 68.5293 12.1289 65.1113 9.43359C61.7129 6.71875 57.9727 4.61914 53.8906 3.13477C49.8086 1.65039 45.502 0.908203 40.9707 0.908203C36.459 0.908203 32.1621 1.65039 28.0801 3.13477C23.998 4.61914 20.248 6.71875 16.8301 9.43359C13.4316 12.1289 10.4824 15.3125 7.98242 18.9844C5.48242 22.6562 3.53906 26.6895 2.15234 31.084C0.765625 35.4785 0.0722656 40.0977 0.0722656 44.9414C0.0722656 45.5078 0.267578 45.9766 0.658203 46.3477C1.06836 46.7383 1.55664 46.9336 2.12305 46.9336ZM14.8965 46.9336C15.4434 46.9336 15.9219 46.7383 16.332 46.3477C16.7617 45.9766 16.9766 45.5176 16.9766 44.9707C16.9766 41.8262 17.4844 38.8477 18.5 36.0352C19.5352 33.2031 20.9902 30.6445 22.8652 28.3594C24.7402 26.0742 26.9375 24.1895 29.457 22.7051C29.2617 21.9629 29.1348 21.2305 29.0762 20.5078C29.0176 19.7656 29.0371 19.0234 29.1348 18.2812C25.8926 19.8438 23.0508 21.9824 20.6094 24.6973C18.168 27.4121 16.2637 30.5078 14.8965 33.9844C13.5488 37.4414 12.875 41.1035 12.875 44.9707C12.875 45.5176 13.0703 45.9766 13.4609 46.3477C13.8516 46.7383 14.3301 46.9336 14.8965 46.9336ZM67.1035 46.9336C67.6699 46.9336 68.1484 46.7383 68.5391 46.3477C68.9492 45.9766 69.1543 45.5176 69.1543 44.9707C69.1543 41.123 68.4805 37.4707 67.1328 34.0137C65.7852 30.5566 63.8906 27.4805 61.4492 24.7852C59.0273 22.0703 56.2051 19.9023 52.9824 18.2812C53.041 19.0234 53.041 19.7754 52.9824 20.5371C52.9434 21.2793 52.8262 22.0215 52.6309 22.7637C55.1504 24.248 57.3379 26.1328 59.1934 28.418C61.0488 30.6836 62.4844 33.2324 63.5 36.0645C64.5352 38.877 65.0527 41.8457 65.0527 44.9707C65.0527 45.5176 65.2578 45.9766 65.668 46.3477C66.0781 46.7383 66.5566 46.9336 67.1035 46.9336Z" fill="#FC7942" fill-opacity="0.8"/>
</svg>
