<svg width="172" height="64" viewBox="0 0 172 64" fill="none" xmlns="http://www.w3.org/2000/svg">
<path fill-rule="evenodd" clip-rule="evenodd" d="M5.45881 11.0989L2.15833 2.73646C1.5635 1.22935 2.91382 -0.322546 4.4887 0.0582286L19.662 3.72688C20.4303 3.64573 21.2103 3.60412 22 3.60412H150C162.15 3.60412 172 13.4539 172 25.6041V41.6041C172 53.7544 162.15 63.6041 150 63.6041H22C9.84974 63.6041 0 53.7544 0 41.6041V25.6041C0 20.0471 2.06035 14.9713 5.45881 11.0989Z" fill="#E7CFFE"/>
<path d="M42.7505 43.6006C43.8898 43.6006 44.6995 43.3524 45.1797 42.856C45.6598 42.3677 45.8999 41.8021 45.8999 41.1592C45.8999 40.3535 45.6558 39.6699 45.1675 39.1084C44.6873 38.5469 43.9753 38.1196 43.0312 37.8267C42.0954 37.5337 40.9316 37.3872 39.54 37.3872C39.2145 37.3872 38.9338 37.3953 38.6978 37.4116C38.4618 37.4198 38.2502 37.432 38.063 37.4482C37.884 37.4645 37.7212 37.4849 37.5747 37.5093L36.7446 35.5439C36.1506 34.1279 35.4588 33.009 34.6694 32.187C33.88 31.3651 33.0296 30.7791 32.1182 30.4292C31.2148 30.0711 30.2912 29.8921 29.3472 29.8921C29.1112 29.8921 28.867 29.9002 28.6147 29.9165C28.3625 29.9328 28.1224 29.9653 27.8945 30.0142C27.6341 30.0793 27.4469 30.1769 27.333 30.3071C27.2272 30.4373 27.1743 30.5879 27.1743 30.7588C27.1743 30.9622 27.2394 31.125 27.3696 31.2471C27.508 31.361 27.687 31.418 27.9067 31.418C28.1427 31.4017 28.3584 31.3854 28.5537 31.3691C28.7572 31.3447 28.9972 31.3325 29.2739 31.3325C30.1528 31.3325 30.9585 31.4993 31.6909 31.833C32.4233 32.1667 33.1069 32.716 33.7417 33.481C34.3765 34.2459 34.9787 35.2754 35.5483 36.5693L36.6348 39.0596C37.0661 38.9782 37.5015 38.9049 37.9409 38.8398C38.3885 38.7747 38.9338 38.7422 39.5767 38.7422C40.3905 38.7422 41.1595 38.8236 41.8838 38.9863C42.6162 39.1491 43.2103 39.4014 43.666 39.7432C44.1217 40.0768 44.3496 40.5081 44.3496 41.0371C44.3496 41.3382 44.2072 41.5864 43.9224 41.7817C43.6375 41.9771 43.2469 42.0747 42.7505 42.0747C42.1971 42.0747 41.6925 42.0218 41.2368 41.916C40.7811 41.8184 40.3009 41.7695 39.7964 41.7695C39.3244 41.7695 38.9053 41.7899 38.5391 41.8306C38.1729 41.8794 37.8473 41.9201 37.5625 41.9526C37.2858 41.9933 37.0295 42.0137 36.7935 42.0137C36.5168 42.0137 36.2279 41.9771 35.9268 41.9038C35.6257 41.8306 35.3205 41.6719 35.0112 41.4277L29.9209 37.2041C28.098 37.2855 26.5151 37.078 25.1724 36.5815C23.8296 36.0851 22.7635 35.2591 21.9741 34.1035C21.3638 34.1686 20.8633 34.0872 20.4727 33.8594C20.0902 33.6234 19.8989 33.2612 19.8989 32.7729C19.8989 32.3254 20.078 31.9673 20.436 31.6987C20.8022 31.422 21.3027 31.3 21.9375 31.3325C22.5479 29.3794 23.4878 27.9308 24.7573 26.9868C26.035 26.0428 27.5731 25.5708 29.3716 25.5708C30.3075 25.5708 31.2352 25.7254 32.1548 26.0347C33.0744 26.3439 33.9736 26.7386 34.8525 27.2188C35.7396 27.6989 36.59 28.1953 37.4038 28.708C38.2257 29.2207 38.9948 29.6886 39.7109 30.1118C40.1341 30.3641 40.5451 30.5391 40.9438 30.6367C41.3426 30.7344 41.6925 30.7832 41.9937 30.7832C42.5959 30.7832 43.1452 30.592 43.6416 30.2095C44.138 29.8188 44.6263 29.2288 45.1064 28.4395L37.5259 23.7886C37.1922 23.5933 36.8626 23.3776 36.5371 23.1416C36.2116 22.9056 35.943 22.6859 35.7314 22.4824C35.5199 22.279 35.4141 22.1203 35.4141 22.0063C35.4141 21.7703 35.5646 21.5588 35.8657 21.3716C36.1668 21.1763 36.5371 21.0216 36.9766 20.9077C37.4242 20.7938 37.8514 20.7368 38.2583 20.7368C39.1942 20.7368 40.0609 20.9932 40.8584 21.5059C41.6559 22.0186 42.4046 22.7062 43.1045 23.5688L46.5713 27.8169C47.377 27.7762 48.1257 27.8901 48.8174 28.1587C49.5173 28.4272 50.1276 28.8219 50.6484 29.3428C51.1774 29.8555 51.5884 30.4577 51.8813 31.1494C52.1743 31.8411 52.3208 32.598 52.3208 33.4199C52.3208 34.4372 52.0563 35.1411 51.5273 35.5317C51.0065 35.9142 50.1235 36.1055 48.8784 36.1055C48.1053 36.1055 47.3118 35.959 46.498 35.666C45.6842 35.373 44.9274 34.9824 44.2275 34.4941C43.4951 34.7057 42.7668 34.9661 42.0425 35.2754C41.3182 35.5846 40.6183 35.9305 39.9429 36.313C39.2674 36.6955 38.6326 37.1105 38.0386 37.5581L39.2227 38.2783C40.0853 37.7738 40.9398 37.318 41.7861 36.9111C42.6406 36.5042 43.3608 36.1828 43.9468 35.9468C44.6385 36.4269 45.436 36.8053 46.3394 37.082C47.2427 37.3587 48.0768 37.493 48.8418 37.4849C49.8753 37.4767 50.7583 37.3506 51.4907 37.1064C52.2313 36.8623 52.7928 36.4432 53.1753 35.8491C53.5578 35.255 53.749 34.4412 53.749 33.4077C53.749 32.4312 53.5781 31.5238 53.2363 30.6855C52.8945 29.8473 52.4225 29.119 51.8203 28.5005C51.2262 27.8739 50.5426 27.3896 49.7695 27.0479C48.9964 26.6979 48.1745 26.527 47.3037 26.5352L44.7646 23.0317C43.8369 21.7785 42.84 20.8141 41.7739 20.1387C40.716 19.4551 39.54 19.1133 38.2461 19.1133C37.7334 19.1133 37.2004 19.1784 36.647 19.3086C36.0936 19.4388 35.5809 19.626 35.1089 19.8701C34.6369 20.1143 34.2544 20.3991 33.9614 20.7246C33.6766 21.0501 33.5342 21.4041 33.5342 21.7866C33.5342 22.2098 33.6766 22.6004 33.9614 22.9585C34.2463 23.3166 34.6165 23.6584 35.0723 23.9839C35.5361 24.3094 36.0326 24.6431 36.5615 24.9849C37.0091 25.2534 37.4852 25.5382 37.9897 25.8394C38.4943 26.1405 39.0111 26.4497 39.54 26.7671C40.0771 27.0845 40.6224 27.4059 41.1758 27.7314C41.7292 28.0488 42.2744 28.3621 42.8115 28.6714C42.6243 28.8423 42.4616 28.9684 42.3232 29.0498C42.1849 29.1312 42.0384 29.1719 41.8838 29.1719C41.6803 29.1719 41.4484 29.123 41.188 29.0254C40.9357 28.9277 40.6346 28.7731 40.2847 28.5615C39.1535 27.9268 38.1159 27.3286 37.1719 26.7671C36.236 26.2056 35.3449 25.7132 34.4985 25.29C33.6603 24.8587 32.8262 24.521 31.9961 24.2769C31.166 24.0327 30.2993 23.9106 29.396 23.9106C27.2801 23.9106 25.4735 24.4518 23.9761 25.5342C22.4787 26.6084 21.3638 28.1912 20.6313 30.2827C19.9152 30.4211 19.3374 30.714 18.8979 31.1616C18.4585 31.6011 18.2388 32.1748 18.2388 32.8828C18.2388 33.4688 18.373 33.957 18.6416 34.3477C18.9183 34.7383 19.2764 35.0394 19.7158 35.251C20.1553 35.4626 20.6273 35.5846 21.1318 35.6172C21.5306 36.2438 22.1165 36.8094 22.8896 37.314C23.6709 37.8185 24.5986 38.201 25.6729 38.4614C26.7552 38.7218 27.9393 38.7992 29.2251 38.6934L34.1812 42.7339C34.5311 43.0187 34.9054 43.2344 35.3042 43.3809C35.7111 43.5273 36.1994 43.6006 36.769 43.6006C37.2329 43.6006 37.6927 43.5477 38.1484 43.4419C38.6042 43.3361 39.1698 43.2832 39.8452 43.2832C40.4718 43.2832 40.9845 43.3361 41.3833 43.4419C41.7821 43.5477 42.2378 43.6006 42.7505 43.6006ZM28.688 44.8335C29.4692 44.8335 30.2261 44.7562 30.9585 44.6016C31.6991 44.4551 32.3989 44.1987 33.0581 43.8325C33.7254 43.4744 34.3439 42.9821 34.9136 42.3555L33.6074 41.4644C33.2412 41.9038 32.8058 42.266 32.3013 42.5508C31.7967 42.8438 31.2352 43.0594 30.6167 43.1978C29.9982 43.3361 29.335 43.4053 28.627 43.4053C27.7969 43.4053 27.1336 43.2629 26.6372 42.978C26.1408 42.6932 25.8926 42.3107 25.8926 41.8306C25.8926 41.5864 25.974 41.383 26.1367 41.2202C26.3076 41.0575 26.568 40.9761 26.918 40.9761C27.2598 40.9761 27.6178 41.0127 27.9922 41.0859C28.3665 41.1592 28.7653 41.1958 29.1885 41.1958C29.8477 41.1958 30.401 41.1348 30.8486 41.0127C31.3044 40.8906 31.7438 40.6221 32.167 40.207L31.0195 39.2061C30.7184 39.4665 30.4499 39.6374 30.2139 39.7188C29.9779 39.8001 29.7174 39.8408 29.4326 39.8408C29.0257 39.8408 28.627 39.7961 28.2363 39.7065C27.8538 39.617 27.4429 39.5723 27.0034 39.5723C26.2222 39.5723 25.5874 39.7798 25.0991 40.1948C24.619 40.6099 24.3789 41.1551 24.3789 41.8306C24.3789 42.7909 24.7695 43.5314 25.5508 44.0522C26.3402 44.5731 27.3859 44.8335 28.688 44.8335ZM48.146 32.6387C48.4227 32.6387 48.6587 32.541 48.854 32.3457C49.0575 32.1504 49.1592 31.9144 49.1592 31.6377C49.1592 31.361 49.0575 31.1209 48.854 30.9175C48.6587 30.714 48.4227 30.6123 48.146 30.6123C47.8774 30.6123 47.6414 30.714 47.438 30.9175C47.2427 31.1209 47.145 31.361 47.145 31.6377C47.145 31.9144 47.2427 32.1504 47.438 32.3457C47.6414 32.541 47.8774 32.6387 48.146 32.6387Z" fill="#131313"/>
<path d="M73.6 28.2755H75.975C75.775 24.6005 73.35 22.7255 69.725 22.7255C66.5 22.7255 63.475 24.5005 63.55 27.9505C63.625 31.3255 66.8 32.2005 69.75 33.0005C72.025 33.6255 74.275 34.0255 74.275 36.2255C74.275 38.4005 72.05 39.4255 69.95 39.4255C67.3 39.4255 65.425 38.1005 65.375 35.3505H63C63 39.5255 66 41.4255 69.95 41.4255C73.15 41.4255 76.65 39.8005 76.65 36.1505C76.65 32.3255 73.2 31.7505 70.2 30.9505C67.85 30.3255 65.925 29.6005 65.925 27.7755C65.925 25.6005 67.75 24.7255 69.725 24.7255C72.15 24.7255 73.325 25.9255 73.6 28.2755ZM84.6494 29.9255V28.0755H82.1744V23.9005H82.0994L79.9744 24.9005V28.0755H78.0494V29.9255H79.9744V37.5255C79.9744 39.3255 81.0494 41.0005 83.3494 41.0005H84.3744V39.2005H83.5744C82.6494 39.2005 82.1744 38.4005 82.1744 37.3755V29.9255H84.6494ZM95.1387 41.0005H97.5387C97.4387 40.3755 97.3387 39.3505 97.3387 38.3755V32.8255C97.3387 30.8255 96.8887 27.7505 92.1387 27.7505C88.7637 27.7505 87.2387 30.0505 87.1637 31.9755H89.4137C89.5137 30.5255 90.6387 29.6505 92.2137 29.6505C94.0637 29.6505 95.0887 30.4255 95.0887 31.5005C95.0887 32.5755 94.5387 33.0505 92.8387 33.3505C90.8887 33.7005 86.2887 33.6755 86.2887 37.4755C86.2887 39.3255 87.7137 41.3005 90.8137 41.3005C93.6887 41.3005 94.7637 39.6255 95.0637 38.6255H95.0887V39.1255C95.0887 39.8505 95.0887 40.3755 95.1387 41.0005ZM91.2137 39.4755C89.6387 39.4755 88.5137 38.7005 88.5137 37.4755C88.5137 36.0255 89.6387 35.6255 91.5137 35.3005C94.2387 34.8255 94.8387 34.1005 95.0887 33.2755H95.1387V35.0005C95.1387 38.2005 93.1887 39.4755 91.2137 39.4755ZM106.59 30.1505V27.9005C104.865 28.0255 103.365 29.0505 102.79 31.2005H102.765L102.74 28.0755H100.49V41.0005H102.74V34.8755C102.74 31.9005 104.29 30.3005 106.59 30.1505ZM114.337 29.9255V28.0755H111.862V23.9005H111.787L109.662 24.9005V28.0755H107.737V29.9255H109.662V37.5255C109.662 39.3255 110.737 41.0005 113.037 41.0005H114.062V39.2005H113.262C112.337 39.2005 111.862 38.4005 111.862 37.3755V29.9255H114.337ZM125.076 28.0755V34.9255C125.076 38.3005 123.401 39.4005 121.501 39.4005C119.751 39.4005 118.776 38.5005 118.776 36.2255V28.0755H116.526V36.4505C116.526 39.0755 117.801 41.3005 121.201 41.3005C123.376 41.3005 124.701 39.8505 125.051 38.3755H125.076V41.0005H127.326V28.0755H125.076ZM137.144 27.7755C134.619 27.7755 133.219 29.2255 132.794 30.7005H132.769V28.0755H130.519V46.0005H132.769V38.4255H132.794C133.219 39.9005 134.619 41.3005 137.144 41.3005C140.844 41.3005 143.144 38.3755 143.144 34.5005C143.144 30.6505 140.844 27.7755 137.144 27.7755ZM136.794 39.4005C133.619 39.4005 132.694 37.0505 132.694 34.5005C132.694 31.9755 134.019 29.6755 136.794 29.6755C139.544 29.6755 140.894 31.9755 140.894 34.5005C140.894 37.0505 139.619 39.4005 136.794 39.4005ZM152.781 31.9755H155.006C154.756 29.1255 152.531 27.7755 150.006 27.7755C147.731 27.7755 145.231 29.1505 145.231 31.5755C145.231 34.1005 147.831 35.0255 149.456 35.4005C151.181 35.8005 152.981 35.9755 152.981 37.4255C152.981 38.9255 151.456 39.4005 150.181 39.4005C148.431 39.4005 147.406 38.7505 147.106 37.1005H144.856C145.081 40.3005 147.931 41.3005 150.106 41.3005C152.356 41.3005 155.231 40.0505 155.231 37.3005C155.231 35.1505 153.206 34.1755 151.306 33.7505C149.556 33.3505 147.481 32.9755 147.481 31.4755C147.481 30.3755 148.706 29.6755 149.931 29.6755C151.231 29.6755 152.631 30.3005 152.781 31.9755Z" fill="#131313"/>
</svg>
