<svg width="186" height="38" viewBox="0 0 186 38" fill="none" xmlns="http://www.w3.org/2000/svg">
<g clip-path="url(#clip0_9_173)">
<path d="M17.3331 19.4088L18.0337 18.7215V16.2954L17.3331 15.6063H16.3676L15.6996 16.2954V18.7215L16.3676 19.4088H17.3331Z" fill="black"/>
<path d="M23.6329 19.3767L24.3009 18.6875V16.2954L23.6329 15.6063H22.6674L21.9668 16.2954V18.6875L22.6674 19.3767H23.6329Z" fill="black"/>
<path d="M38.4342 13.8032L34.9676 16.4257L34.8333 17.3773L34.6778 17.5075H33.7334L33.0328 18.1967V19.1142L33.6662 19.7373V20.0658L33.0001 20.753L33.0328 25.0482L33.7334 25.7053L33.766 26.0319L33.7852 26.047L33.1326 26.6889V27.6386L32.8331 27.935H27.9326L27.6332 27.6386V22.8185L27.5007 22.6882L26.9326 22.1313V21.8028L26.8827 21.7537L27.566 21.0815V20.164L27.5161 20.113L27.6332 20.0979L27.8328 19.8694L28.8002 19.7694L31.1344 16.8203L31.0365 15.8989L31.2668 15.6724L31.2591 15.5818L31.2668 15.5742L31.238 15.3061L31.2342 15.2457L31.9329 14.5566L31.8676 9.04924L31.167 8.3941V8.32802L31.1996 8.03349L30.9328 7.70497L31.0326 6.75342L28.6659 3.80245L27.7004 3.70428L27.5583 3.51736L27.566 3.50792V2.59035L26.8999 1.90123H25.9671L25.6331 1.63879V0.689124L24.8998 0H15.1007L14.3675 0.689124V1.63879L14.0335 1.90123H13.1006L12.4326 2.59035V3.50792L12.4422 3.51736L12.3002 3.70428L11.3328 3.80245L8.96601 6.75342L9.06582 7.70497L8.80093 8.03349L8.83356 8.32802V8.3941L8.13294 9.04924L8.06576 14.5566L8.76638 15.2457L8.73375 15.6724L8.99288 15.9273L8.90074 16.8203L11.2329 19.7694L12.2004 19.8694L12.4 20.0979L12.4864 20.1092L12.4326 20.164V21.0815L13.1006 21.7707L13.0661 21.8028V22.1313L12.3674 22.8185V27.6386L12.066 27.935H7.16743L6.86607 27.6386V26.6889L6.2 26.0319L6.23263 25.7053L6.93325 25.0482L6.96588 20.753L6.29981 20.0658L6.33053 19.741L6.96588 19.1142V18.1967L6.26718 17.5075H5.32279L5.16731 17.3773L5.03294 16.4257L1.56632 13.8032L0.600805 13.9335L0 14.6887L0.132446 15.6384L3.59907 18.2627L4.5665 18.1306L4.64136 18.1891L4.63368 18.1967V19.1142L5.29975 19.8033H5.3343V19.9997L4.63368 20.6888L4.5665 24.9841L5.23257 25.6713V25.9998H5.19994L4.53387 26.6889V27.6386L5.19994 28.2956H6.16737L6.46681 28.5902V29.5398L7.13288 30.1969H12.0334L12.734 29.5398V28.5902L13.0334 28.2956H14.0335L14.6996 27.6386V22.8185L14.1007 22.1313L14.0661 21.7707L14.7668 21.0815V20.164L14.0661 19.4748H13.1275L12.9663 19.2785L13.0661 18.3269L10.6993 15.376L9.73381 15.2778L9.72997 15.274L9.73381 15.2457L10.4325 14.5905L10.4671 9.11532L9.80099 8.42619L9.81059 8.32235L9.83362 8.29592L10.7991 8.19586L13.1333 5.24678L13.0334 4.29523L13.1102 4.19705H14.0661L14.7668 3.50792V2.59035L15.1007 2.32792H24.8998L25.2338 2.59035V3.50792L25.9325 4.19705H26.8884L26.9671 4.29523L26.8673 5.24678L29.1995 8.19586L30.1669 8.29592L30.19 8.32235L30.1996 8.42619L29.5335 9.11532L29.5661 14.5905L30.2668 15.2457L30.2706 15.2816L29.3339 15.376L26.9671 18.3269L27.0669 19.2785L26.8884 19.4975L26.8673 19.4748H25.8999L25.2338 20.164V21.0815L25.8999 21.7707H25.9325L25.8999 22.1313L25.3336 22.8185V27.6386L25.9997 28.2956H26.9671L27.2666 28.5902V29.5398L27.9672 30.1969H32.8677L33.5337 29.5398V28.5902L33.8332 28.2956H34.8006L35.4667 27.6386V26.6889L34.8006 25.9998H34.7334V25.6713L35.3995 24.9841L35.3342 20.6888L34.6336 19.9997V19.8033H34.7008L35.3669 19.1142V18.1967L35.3592 18.1891L35.4341 18.1306L36.3996 18.2627L39.8662 15.6384L40.0006 14.6887L39.3998 13.9335L38.4342 13.8032Z" fill="black"/>
<path d="M16.9664 28.0974L16.2658 28.7865V29.7381L15.9663 30.0326H15.0008L10.3326 34.5242V35.4417L10.0332 35.7382H5.13271L4.83326 35.4417V34.4921L4.13264 33.8029H3.16713L2.49915 34.4921V35.4417L3.16713 36.0988H4.13264L4.43401 36.3933V37.343L5.10007 38H10.0005L10.6992 37.343V36.3933L10.9987 36.0988L11.0332 36.1309H12.0006L16.667 31.6393V30.6877L16.9338 30.3932H17.8667L18.6325 29.7381V28.7865L17.9338 28.0974H16.9664Z" fill="black"/>
<path d="M35.9331 33.8029L35.2325 34.4921V35.4417L34.9331 35.7382H30.0326L29.7331 35.4417V34.5242L25.0668 30.0326H24.0994L23.7999 29.7381V28.7865L23.0993 28.0974H22.1338L21.4332 28.7865V29.7381L22.201 30.3932H23.1339L23.4007 30.6877V31.6393L28.067 36.1309H29.0325L29.0671 36.0988L29.3665 36.3933V37.343L30.0671 38H34.9676L35.6337 37.343V36.3933L35.9331 36.0988H36.9006L37.5666 35.4417V34.4921L36.9006 33.8029H35.9331Z" fill="black"/>
<path d="M63.0001 10.9826L62.6661 10.688V9.67227L61.9328 8.95105H56.7674L56.0668 9.67227V10.688L55.7328 10.9826H54.7001L53.9995 11.7057V16.7863L54.7001 17.5075H55.7328L56.0668 17.8039V18.8197L56.7674 19.5409H61.9328L62.2668 19.8694V24.9501L61.9328 25.2465H56.7674L56.4661 24.9501V23.9343L55.7328 23.2131H54.7001L53.9995 23.9343V24.9501L54.7001 25.6392H55.7328L56.0668 25.9677V26.9835L56.7674 27.6726H61.9328L62.6661 26.9835V25.9677L63.0001 25.6392H64.0001L64.7007 24.9501V19.8694L64.0001 19.1482H62.9674L62.6334 18.8197V17.8039L61.9002 17.1148H56.7329L56.4334 16.7863V11.7057L56.7329 11.4093H61.9002L62.2342 11.7057L62.2668 12.7214L63.0001 13.4426H64.0328L64.7334 12.7214V11.7057L64.0328 10.9826H63.0001Z" fill="black"/>
<path d="M78.1334 13.0159L77.4002 13.7372V24.9501L77.9338 25.4749L77.6344 25.7695L77.1007 25.2786H71.9334L71.5994 24.9841V13.7712L70.8662 13.0499H69.8335L69.1329 13.7712V24.9841L69.8335 25.7053H70.8662L71.2002 25.9998V27.0156L71.9334 27.7368H77.1007L77.6344 27.2119L77.9338 27.5083L77.4002 28.0332V29.0168L77.1007 29.3114H71.9334L71.2002 30.0326V31.0483L71.9334 31.7696H77.1007L77.7994 31.0483V30.0326L78.1334 29.7381H79.1661L79.8668 29.0168V13.7372L79.1661 13.0159H78.1334Z" fill="black"/>
<path d="M93.2994 15.0493L93 14.7548V13.7372L92.2667 13.0159H85.0341L84.3008 13.7372V26.9835L85.0341 27.7047H86.0667L86.8 26.9835V15.7706L86.2664 15.2457L86.5677 14.9512L87.0994 15.476H88.134L88.6677 14.9512L88.9671 15.2457L88.4335 15.7706V20.8531L89.1667 21.5743H90.1994L90.9327 20.8531V15.7706L90.401 15.2457L90.7004 14.9512L91.2341 15.476H92.2667L92.5662 15.7706V26.9835L93.2994 27.7047H94.3341L95.0673 26.9835V15.7706L94.3341 15.0493H93.2994Z" fill="black"/>
<path d="M108.467 15.0814L108.133 14.7529V13.7372L107.433 13.048H102.233L101.699 13.5729L101.4 13.2444L101.933 12.7195V9.67044L101.2 8.94922H100.167L99.4668 9.67044V27.0137L100.167 27.7349H107.435L108.135 27.0137V25.9979L108.469 25.6694H109.502L110.203 24.9804V15.8008L109.502 15.0795H108.469L108.467 15.0814ZM107.767 24.9823L107.467 25.2767H102.267L101.734 25.7676L101.434 25.473L101.968 24.9482V15.7687L101.434 15.2438L101.734 14.9493L102.267 15.4741H107.467L107.767 15.8027V24.9823Z" fill="black"/>
<path d="M120.668 10.8843L121.401 10.1631V8.91702L120.668 8.1958H119.366L118.668 8.91702V10.1631L119.366 10.8843H120.668Z" fill="black"/>
<path d="M117.433 13.0499L116.7 13.7712V14.7869L117.433 15.5081H118.433L118.967 14.9833L119.267 15.2778L118.733 15.8027V24.9841L119.267 25.507L118.967 25.8034L118.433 25.3107H117.433L116.7 26.0319V27.0495L117.433 27.7708H122.601L123.301 27.0495V26.0319L122.601 25.3107H121.568L121.034 25.8034L120.7 25.507L121.234 24.9841V15.8027L120.7 15.2778L121.034 14.9833L121.568 15.5081H122.601L123.301 14.7869V13.7712L122.601 13.0499H117.433Z" fill="black"/>
<path d="M138.801 15.0814L138.467 14.7869V13.7712L137.734 13.0499H132.567L131.866 13.7712V14.7869L131.532 15.0814H130.499L129.799 15.8027V24.9822L130.499 25.7034H131.532L131.866 25.9979V27.0137L132.567 27.7349H137.734L138.467 27.0137V25.9979L138.801 25.7034H139.834L140.535 24.9822V15.8027L139.834 15.0814H138.801ZM138.068 24.9822L137.734 25.2767H132.567L132.267 24.9822V15.8027L132.567 15.5081H137.734L138.068 15.8027V24.9822Z" fill="black"/>
<path d="M153.967 15.0814L153.633 14.7869V13.7712L152.935 13.0499H147.735L147.034 13.7712V14.7869L146.7 15.0814H145.667L144.967 15.8027V18.8518L145.667 19.573H146.7L147.034 19.8694V20.8852L147.735 21.6064H152.935L153.234 21.9009V24.9501L152.935 25.2465H147.735L147.433 24.9501V23.9343L146.7 23.2131H145.667L144.967 23.9343V24.9501L145.667 25.6713H146.667L147.001 25.9677V26.9835L147.7 27.7047H152.9L153.601 26.9835V25.9677L153.935 25.6713H154.967L155.668 24.9501V21.9009L154.967 21.1797H153.935L153.601 20.8852V19.8694L152.935 19.1482H147.735L147.433 18.8518V15.8027L147.735 15.5081H152.935L153.234 15.8027V16.8203L153.967 17.5415H155L155.701 16.8203V15.8027L155 15.0814H153.967Z" fill="black"/>
<path d="M166.133 10.8843L166.866 10.1631V8.91702L166.133 8.1958H164.834L164.133 8.91702V10.1631L164.834 10.8843H166.133Z" fill="black"/>
<path d="M162.933 13.0499L162.2 13.7712V14.7869L162.933 15.5081H163.933L164.467 14.9833L164.766 15.2778L164.235 15.8027V24.9841L164.766 25.507L164.467 25.8034L163.933 25.3107H162.933L162.2 26.0319V27.0495L162.933 27.7708H168.101L168.801 27.0495V26.0319L168.101 25.3107H167.068L166.534 25.8034L166.2 25.507L166.734 24.9841V15.8027L166.2 15.2778L166.534 14.9833L167.068 15.5081H168.101L168.801 14.7869V13.7712L168.101 13.0499H162.933Z" fill="black"/>
<path d="M184.267 17.5415H185.301L186 16.8203V15.8027L185.301 15.0814H184.267L183.935 14.7869V13.7712L183.234 13.0499H178.034L177.333 13.7712V14.7869L177.001 15.0814H175.967L175.268 15.8027V18.8518L175.967 19.573H177.001L177.333 19.8694V20.8852L178.034 21.6064H183.234L183.533 21.9009V24.9501L183.234 25.2465H178.034L177.735 24.9501V23.9343L177.001 23.2131H175.967L175.268 23.9343V24.9501L175.967 25.6713H177.001L177.333 25.9677V26.9835L178.034 27.7047H183.234L183.935 26.9835V25.9677L184.267 25.6713H185.301L186 24.9501V21.9009L185.301 21.1797H184.267L183.935 20.8852V19.8694L183.234 19.1482H178.034L177.735 18.8518V15.8027L178.034 15.5081H183.234L183.533 15.8027V16.8203L184.267 17.5415Z" fill="black"/>
</g>
<defs>
<clipPath id="clip0_9_173">
<rect width="186" height="38" fill="white"/>
</clipPath>
</defs>
</svg>
