<svg width="105" height="51" viewBox="0 0 105 51" fill="none" xmlns="http://www.w3.org/2000/svg">
<path d="M34.9219 50.2734H70.0781C72.1289 50.2734 73.584 49.9805 74.4434 49.3945C75.3223 48.8086 75.7617 47.9102 75.7617 46.6992C75.7617 44.9023 75.2148 43.0273 74.1211 41.0742C73.0469 39.1016 71.5039 37.2559 69.4922 35.5371C67.4805 33.8184 65.0391 32.4219 62.168 31.3477C59.2969 30.2539 56.0742 29.707 52.5 29.707C48.9062 29.707 45.6738 30.2539 42.8027 31.3477C39.9512 32.4219 37.5098 33.8184 35.4785 35.5371C33.4668 37.2559 31.9238 39.1016 30.8496 41.0742C29.7754 43.0273 29.2383 44.9023 29.2383 46.6992C29.2383 47.9102 29.668 48.8086 30.5273 49.3945C31.3867 49.9805 32.8516 50.2734 34.9219 50.2734ZM52.5 24.7559C54.4922 24.7559 56.3184 24.2188 57.9785 23.1445C59.6582 22.0703 60.9961 20.6152 61.9922 18.7793C63.0078 16.9238 63.5156 14.8438 63.5156 12.5391C63.5156 10.293 63.0078 8.28125 61.9922 6.50391C60.9961 4.70703 59.6582 3.29102 57.9785 2.25586C56.2988 1.20117 54.4727 0.673828 52.5 0.673828C50.5273 0.673828 48.7012 1.20117 47.0215 2.25586C45.3613 3.31055 44.0234 4.74609 43.0078 6.5625C41.9922 8.35937 41.4844 10.3711 41.4844 12.5977C41.4844 14.8633 41.9922 16.9238 43.0078 18.7793C44.0234 20.6152 45.3613 22.0703 47.0215 23.1445C48.7012 24.2188 50.5273 24.7559 52.5 24.7559ZM5.00977 50.2734H26.5137C25.791 49.3359 25.4297 48.1445 25.4297 46.6992C25.4297 45.2734 25.7422 43.7598 26.3672 42.1582C26.9922 40.5371 27.8613 38.9551 28.9746 37.4121C30.0879 35.8691 31.4062 34.5117 32.9297 33.3398C31.3672 32.2656 29.5703 31.377 27.5391 30.6738C25.5078 29.9707 23.1738 29.6191 20.5371 29.6191C17.4121 29.6191 14.5996 30.127 12.0996 31.1426C9.61914 32.1582 7.5 33.5059 5.74219 35.1855C3.98438 36.8457 2.63672 38.6719 1.69922 40.6641C0.761719 42.6367 0.292969 44.5801 0.292969 46.4941C0.292969 47.7441 0.654297 48.6816 1.37695 49.3066C2.11914 49.9512 3.33008 50.2734 5.00977 50.2734ZM20.5664 25.3711C22.2852 25.3711 23.877 24.9121 25.3418 23.9941C26.8066 23.0566 27.9688 21.7871 28.8281 20.1855C29.707 18.5645 30.1465 16.7578 30.1465 14.7656C30.1465 12.793 29.707 11.0254 28.8281 9.46289C27.9492 7.90039 26.7773 6.66992 25.3125 5.77148C23.8672 4.87305 22.2852 4.42383 20.5664 4.42383C18.8477 4.42383 17.2559 4.88281 15.791 5.80078C14.3457 6.71875 13.1738 7.95898 12.2754 9.52148C11.3965 11.084 10.957 12.8418 10.957 14.7949C10.957 16.7871 11.3965 18.584 12.2754 20.1855C13.1543 21.7871 14.3262 23.0566 15.791 23.9941C17.2559 24.9121 18.8477 25.3711 20.5664 25.3711ZM99.9316 50.2734C101.592 50.2734 102.793 49.9512 103.535 49.3066C104.277 48.6816 104.648 47.7441 104.648 46.4941C104.648 44.5801 104.18 42.6367 103.242 40.6641C102.305 38.6719 100.947 36.8457 99.1699 35.1855C97.4121 33.5059 95.2832 32.1582 92.7832 31.1426C90.3027 30.127 87.5 29.6191 84.375 29.6191C81.7383 29.6191 79.4043 29.9707 77.373 30.6738C75.3418 31.377 73.5547 32.2656 72.0117 33.3398C73.5156 34.5117 74.8242 35.8691 75.9375 37.4121C77.0703 38.9551 77.9492 40.5371 78.5742 42.1582C79.1992 43.7598 79.5117 45.2734 79.5117 46.6992C79.5117 48.1445 79.1504 49.3359 78.4277 50.2734H99.9316ZM84.3457 25.3711C86.084 25.3711 87.6758 24.9121 89.1211 23.9941C90.5859 23.0566 91.7578 21.7871 92.6367 20.1855C93.5352 18.584 93.9844 16.7871 93.9844 14.7949C93.9844 12.8418 93.5352 11.084 92.6367 9.52148C91.7578 7.95898 90.5859 6.71875 89.1211 5.80078C87.6758 4.88281 86.084 4.42383 84.3457 4.42383C82.627 4.42383 81.0352 4.87305 79.5703 5.77148C78.125 6.66992 76.9629 7.90039 76.084 9.46289C75.2051 11.0254 74.7656 12.793 74.7656 14.7656C74.7656 16.7578 75.2051 18.5645 76.084 20.1855C76.9629 21.7871 78.125 23.0566 79.5703 23.9941C81.0352 24.9121 82.627 25.3711 84.3457 25.3711Z" fill="#FC7942" fill-opacity="0.8"/>
</svg>
