<svg width="170" height="34" viewBox="0 0 170 34" fill="none" xmlns="http://www.w3.org/2000/svg">
<path d="M155.894 2.4734H154.196C152.691 2.4734 151.471 3.69361 151.471 5.19882V6.38181C151.471 8.74173 148.614 9.91942 146.951 8.24502C145.917 7.20395 144.233 7.20394 143.199 8.24502L141.997 9.45485C140.942 10.5177 140.942 12.2332 141.997 13.296L153.111 24.4861C154.177 25.5593 155.913 25.5593 156.979 24.4861L168.093 13.296C169.148 12.2332 169.148 10.5177 168.093 9.45485L166.891 8.24502C165.857 7.20395 164.173 7.20395 163.139 8.24502C161.476 9.91942 158.619 8.74173 158.619 6.38181V5.19883C158.619 3.69362 157.399 2.4734 155.894 2.4734Z" stroke="url(#paint0_linear_9_197)" stroke-width="1.58879"/>
<path d="M156.234 31.947H153.855C152.538 31.947 151.471 30.8793 151.471 29.5623V27.4096C151.471 25.2811 148.894 24.2189 147.394 25.7291L146.767 26.3606C145.834 27.2996 144.315 27.2996 143.383 26.3606L141.759 24.7255C140.835 23.7955 140.835 22.2944 141.759 21.3645L153.353 9.69091C154.285 8.75192 155.804 8.75192 156.737 9.69091L168.331 21.3645C169.255 22.2944 169.255 23.7955 168.331 24.7255L166.707 26.3606C165.774 27.2996 164.256 27.2996 163.323 26.3606L162.696 25.7291C161.196 24.2189 158.619 25.2811 158.619 27.4096V29.5623C158.619 30.8793 157.551 31.947 156.234 31.947Z" fill="#94DA3B"/>
<path d="M9.90419 21.5602V13.5344H15.5735V8.75305H9.90419V3.80095L4.43981 5.50857V8.75305H0.341524V13.5344H4.43981V23.4386C4.43981 25.317 5.46438 26.4098 7.34276 26.3415L16.2565 26V21.2187L9.90419 21.5602ZM17.2923 26H22.7567V13.3295L31.5339 13.5344V8.75305L20.2294 8.47983C18.351 8.44568 17.2923 9.47025 17.2923 11.3486V26ZM41.2435 21.5602C38.6138 21.5602 37.6917 20.3649 37.6917 17.2228V8.75305H32.2273V18.0766C32.2273 23.4044 34.8912 26.3415 39.2968 26.3415C42.9853 26.3415 45.1369 23.9167 45.82 20.843H47.186L46.1615 23.9167V26H51.6259V8.75305H46.1615V15.1395C46.1615 19.9892 44.2148 21.5602 41.2435 21.5602ZM52.2985 17.1545C52.2985 22.0383 55.3381 26.3415 61.9636 26.3415C67.9403 26.3415 70.7749 22.414 71.1165 19.9209H65.6521C65.3106 21.2187 63.8762 21.9017 61.9636 21.9017C58.8558 21.9017 57.4214 20.5015 57.4214 18.5206H70.5017V16.813C70.5017 11.5877 66.745 8.41152 61.383 8.41152C56.0211 8.41152 52.2985 11.6902 52.2985 17.1545ZM57.4214 15.4469C57.4214 14.1491 58.3435 12.8513 61.383 12.8513C64.4226 12.8513 65.3789 14.1491 65.3789 15.4469H57.4214ZM71.7934 8.75305V32.489H77.2577V24.9413L76.2332 21.8676H77.5993C78.4872 24.1558 80.1265 26.3415 84.3956 26.3415C89.3818 26.3415 91.875 22.2774 91.875 17.3936C91.875 12.5098 89.3818 8.41152 84.3956 8.41152C80.1265 8.41152 78.4872 10.5973 77.5993 12.8855H76.2332L77.2577 9.81177V8.75305H71.7934ZM77.2577 17.3936C77.2577 14.4565 78.8971 13.1929 81.8342 13.1929C84.7713 13.1929 86.4106 14.4565 86.4106 17.3936C86.4106 20.3307 84.7713 21.5602 81.8342 21.5602C78.8971 21.5602 77.2577 20.3307 77.2577 17.3936ZM103.289 13.1929C105.919 13.1929 106.841 14.3882 106.841 17.5302V26H112.305V16.6764C112.305 11.3486 109.641 8.41152 105.235 8.41152C101.547 8.41152 99.3954 10.8363 98.7124 13.9101H97.3463L98.3709 10.8363V8.75305H92.9065V26H98.3709V19.6135C98.3709 14.7639 100.318 13.1929 103.289 13.1929ZM112.995 26H128.022V21.2187H123.241V3.52773C123.241 1.6152 122.182 0.59063 120.269 0.658934L113.678 0.898002V5.67933L117.776 5.47442V21.2187H112.995V26Z" fill="#0D0D0D"/>
<defs>
<linearGradient id="paint0_linear_9_197" x1="142.199" y1="23.1252" x2="168.463" y2="21.9596" gradientUnits="userSpaceOnUse">
<stop stop-color="#0071E3"/>
<stop offset="1" stop-color="#082848"/>
</linearGradient>
</defs>
</svg>
